<svg width="49" height="50" viewBox="0 0 49 50" fill="none" xmlns="http://www.w3.org/2000/svg">
<path d="M24.2855 15.6643C21.8496 15.6643 19.5134 16.6481 17.791 18.3992C16.0685 20.1504 15.1008 22.5255 15.1008 25.002C15.1008 27.4785 16.0685 29.8536 17.791 31.6048C19.5134 33.356 21.8496 34.3397 24.2855 34.3397C26.7214 34.3397 29.0576 33.356 30.78 31.6048C32.5025 29.8536 33.4701 27.4785 33.4701 25.002C33.4701 22.5255 32.5025 20.1504 30.78 18.3992C29.0576 16.6481 26.7214 15.6643 24.2855 15.6643ZM24.2855 31.0663C22.703 31.0663 21.1853 30.4272 20.0663 29.2895C18.9473 28.1519 18.3186 26.6089 18.3186 25C18.3186 23.3911 18.9473 21.8481 20.0663 20.7105C21.1853 19.5728 22.703 18.9337 24.2855 18.9337C25.868 18.9337 27.3857 19.5728 28.5047 20.7105C29.6237 21.8481 30.2523 23.3911 30.2523 25C30.2523 26.6089 29.6237 28.1519 28.5047 29.2895C27.3857 30.4272 25.868 31.0663 24.2855 31.0663Z" fill="#303030"/>
<path d="M33.8336 17.4979C35.0162 17.4979 35.9749 16.5233 35.9749 15.321C35.9749 14.1187 35.0162 13.1441 33.8336 13.1441C32.651 13.1441 31.6924 14.1187 31.6924 15.321C31.6924 16.5233 32.651 17.4979 33.8336 17.4979Z" fill="#303030"/>
<path d="M41.2366 13.1077C40.7768 11.9005 40.0741 10.8042 39.1735 9.88891C38.273 8.97367 37.1943 8.25968 36.0067 7.79265C34.617 7.26226 33.1488 6.97548 31.6647 6.9445C29.7519 6.85968 29.146 6.83545 24.2955 6.83545C19.4449 6.83545 18.8232 6.83545 16.9263 6.9445C15.4433 6.97389 13.9762 7.26074 12.5882 7.79265C11.4003 8.25913 10.3214 8.97293 9.42073 9.88824C8.52008 10.8036 7.81758 11.9002 7.35829 13.1077C6.8365 14.5205 6.55506 16.0133 6.52603 17.5221C6.44062 19.4648 6.41479 20.0807 6.41479 25.0141C6.41479 29.9455 6.41479 30.5736 6.52603 32.5061C6.55582 34.0167 6.83589 35.507 7.35829 36.9226C7.81887 38.1297 8.52205 39.2259 9.42292 40.1411C10.3238 41.0562 11.4025 41.7703 12.5902 42.2377C13.9755 42.7894 15.4433 43.0967 16.9303 43.1464C18.8431 43.2312 19.4489 43.2575 24.2995 43.2575C29.15 43.2575 29.7717 43.2575 31.6686 43.1464C33.1526 43.1157 34.6207 42.8296 36.0107 42.3003C37.198 41.8321 38.2763 41.1175 39.1768 40.202C40.0773 39.2865 40.7802 38.1903 41.2406 36.9832C41.763 35.5696 42.0431 34.0793 42.0729 32.5687C42.1583 30.6261 42.1841 30.0102 42.1841 25.0767C42.1841 20.1433 42.1841 19.5173 42.0729 17.5847C42.0498 16.0546 41.7669 14.54 41.2366 13.1077ZM38.8173 32.3567C38.8045 33.5205 38.5956 34.6734 38.1996 35.7655C37.9013 36.5507 37.4446 37.2639 36.859 37.8589C36.2733 38.454 35.5716 38.9179 34.799 39.2207C33.7368 39.6214 32.6148 39.8338 31.4819 39.8487C29.5949 39.9376 29.0626 39.9598 24.224 39.9598C19.3814 39.9598 18.8868 39.9598 16.964 39.8487C15.8317 39.8346 14.7102 39.6222 13.6489 39.2207C12.8736 38.9197 12.1691 38.4567 11.5809 37.8615C10.9928 37.2663 10.5341 36.5522 10.2345 35.7655C9.84404 34.6852 9.63521 33.5458 9.61671 32.3951C9.5313 30.4766 9.51144 29.9354 9.51144 25.0162C9.51144 20.0949 9.51144 19.592 9.61671 17.6352C9.62955 16.4721 9.83849 15.3198 10.2345 14.2285C10.8403 12.6352 12.0817 11.3811 13.6489 10.7713C14.7108 10.3717 15.8319 10.1593 16.964 10.1432C18.853 10.0564 19.3834 10.0322 24.224 10.0322C29.0646 10.0322 29.5612 10.0322 31.4819 10.1432C32.6149 10.1571 33.7371 10.3696 34.799 10.7713C35.5716 11.0747 36.2732 11.5391 36.8588 12.1344C37.4444 12.7298 37.9011 13.4431 38.1996 14.2285C38.59 15.3088 38.7988 16.4481 38.8173 17.5989C38.9027 19.5193 38.9246 20.0585 38.9246 24.9798C38.9246 29.8991 38.9246 30.4282 38.8392 32.3587H38.8173V32.3567Z" fill="#303030"/>
</svg>
