<svg width="49" height="50" viewBox="0 0 49 50" fill="none" xmlns="http://www.w3.org/2000/svg">
<path d="M24.7376 15.6643C22.3017 15.6643 19.9656 16.6481 18.2431 18.3992C16.5206 20.1504 15.553 22.5255 15.553 25.002C15.553 27.4785 16.5206 29.8536 18.2431 31.6048C19.9656 33.356 22.3017 34.3397 24.7376 34.3397C27.1736 34.3397 29.5097 33.356 31.2322 31.6048C32.9546 29.8536 33.9223 27.4785 33.9223 25.002C33.9223 22.5255 32.9546 20.1504 31.2322 18.3992C29.5097 16.6481 27.1736 15.6643 24.7376 15.6643ZM24.7376 31.0663C23.1551 31.0663 21.6374 30.4272 20.5184 29.2895C19.3994 28.1519 18.7708 26.6089 18.7708 25C18.7708 23.3911 19.3994 21.8481 20.5184 20.7105C21.6374 19.5728 23.1551 18.9337 24.7376 18.9337C26.3201 18.9337 27.8378 19.5728 28.9568 20.7105C30.0758 21.8481 30.7045 23.3911 30.7045 25C30.7045 26.6089 30.0758 28.1519 28.9568 29.2895C27.8378 30.4272 26.3201 31.0663 24.7376 31.0663Z" fill="#303030"/>
<path d="M34.2858 17.4979C35.4683 17.4979 36.427 16.5233 36.427 15.321C36.427 14.1187 35.4683 13.1441 34.2858 13.1441C33.1032 13.1441 32.1445 14.1187 32.1445 15.321C32.1445 16.5233 33.1032 17.4979 34.2858 17.4979Z" fill="#303030"/>
<path d="M41.6888 13.1077C41.229 11.9005 40.5263 10.8042 39.6257 9.88891C38.7251 8.97367 37.6465 8.25968 36.4589 7.79265C35.0691 7.26226 33.6009 6.97548 32.1168 6.9445C30.204 6.85968 29.5982 6.83545 24.7476 6.83545C19.8971 6.83545 19.2754 6.83545 17.3785 6.9445C15.8955 6.97389 14.4283 7.26074 13.0404 7.79265C11.8524 8.25913 10.7735 8.97293 9.87288 9.88824C8.97223 10.8036 8.26973 11.9002 7.81044 13.1077C7.28864 14.5205 7.00721 16.0133 6.97818 17.5221C6.89277 19.4648 6.86694 20.0807 6.86694 25.0141C6.86694 29.9455 6.86694 30.5736 6.97818 32.5061C7.00797 34.0167 7.28804 35.507 7.81044 36.9226C8.27102 38.1297 8.9742 39.2259 9.87507 40.1411C10.7759 41.0562 11.8547 41.7703 13.0424 42.2377C14.4277 42.7894 15.8954 43.0967 17.3824 43.1464C19.2952 43.2312 19.9011 43.2575 24.7516 43.2575C29.6021 43.2575 30.2239 43.2575 32.1208 43.1464C33.6048 43.1157 35.0729 42.8296 36.4628 42.3003C37.6502 41.8321 38.7285 41.1175 39.6289 40.202C40.5294 39.2865 41.2323 38.1903 41.6928 36.9832C42.2152 35.5696 42.4952 34.0793 42.525 32.5687C42.6104 30.6261 42.6363 30.0102 42.6363 25.0767C42.6363 20.1433 42.6363 19.5173 42.525 17.5847C42.5019 16.0546 42.219 14.54 41.6888 13.1077ZM39.2695 32.3567C39.2567 33.5205 39.0477 34.6734 38.6517 35.7655C38.3534 36.5507 37.8968 37.2639 37.3111 37.8589C36.7255 38.454 36.0238 38.9179 35.2512 39.2207C34.189 39.6214 33.067 39.8338 31.9341 39.8487C30.0471 39.9376 29.5148 39.9598 24.6761 39.9598C19.8335 39.9598 19.3389 39.9598 17.4162 39.8487C16.2839 39.8346 15.1624 39.6222 14.1011 39.2207C13.3258 38.9197 12.6213 38.4567 12.0331 37.8615C11.4449 37.2663 10.9862 36.5522 10.6866 35.7655C10.2962 34.6852 10.0874 33.5458 10.0689 32.3951C9.98345 30.4766 9.96359 29.9354 9.96359 25.0162C9.96359 20.0949 9.96359 19.592 10.0689 17.6352C10.0817 16.4721 10.2906 15.3198 10.6866 14.2285C11.2924 12.6352 12.5339 11.3811 14.1011 10.7713C15.1629 10.3717 16.284 10.1593 17.4162 10.1432C19.3052 10.0564 19.8355 10.0322 24.6761 10.0322C29.5167 10.0322 30.0133 10.0322 31.9341 10.1432C33.0671 10.1571 34.1892 10.3696 35.2512 10.7713C36.0237 11.0747 36.7253 11.5391 37.3109 12.1344C37.8965 12.7298 38.3533 13.4431 38.6517 14.2285C39.0422 15.3088 39.251 16.4481 39.2695 17.5989C39.3549 19.5193 39.3767 20.0585 39.3767 24.9798C39.3767 29.8991 39.3767 30.4282 39.2913 32.3587H39.2695V32.3567Z" fill="#303030"/>
</svg>
