<svg width="65" height="65" viewBox="0 0 65 65" fill="none" xmlns="http://www.w3.org/2000/svg">
<path d="M32.5055 19.9792C29.2386 19.9792 26.1054 21.2987 23.7954 23.6472C21.4853 25.9958 20.1875 29.1812 20.1875 32.5026C20.1875 35.824 21.4853 39.0093 23.7954 41.3579C26.1054 43.7065 29.2386 45.0259 32.5055 45.0259C35.7725 45.0259 38.9056 43.7065 41.2157 41.3579C43.5258 39.0093 44.8236 35.824 44.8236 32.5026C44.8236 29.1812 43.5258 25.9958 41.2157 23.6472C38.9056 21.2987 35.7725 19.9792 32.5055 19.9792ZM32.5055 40.6357C30.3831 40.6357 28.3477 39.7785 26.8469 38.2528C25.3462 36.727 24.5031 34.6576 24.5031 32.4999C24.5031 30.3421 25.3462 28.2727 26.8469 26.747C28.3477 25.2212 30.3831 24.364 32.5055 24.364C34.6279 24.364 36.6634 25.2212 38.1641 26.747C39.6649 28.2727 40.508 30.3421 40.508 32.4999C40.508 34.6576 39.6649 36.727 38.1641 38.2528C36.6634 39.7785 34.6279 40.6357 32.5055 40.6357Z" fill="#303030"/>
<path d="M45.3111 22.4385C46.8971 22.4385 48.1828 21.1314 48.1828 19.5189C48.1828 17.9065 46.8971 16.5994 45.3111 16.5994C43.725 16.5994 42.4393 17.9065 42.4393 19.5189C42.4393 21.1314 43.725 22.4385 45.3111 22.4385Z" fill="#303030"/>
<path d="M55.2395 16.5508C54.6228 14.9317 53.6804 13.4613 52.4726 12.2338C51.2648 11.0064 49.8182 10.0488 48.2254 9.42242C46.3615 8.7111 44.3925 8.32647 42.402 8.28492C39.8367 8.17117 39.0242 8.13867 32.5188 8.13867C26.0135 8.13867 25.1797 8.13867 22.6356 8.28492C20.6467 8.32435 18.679 8.70905 16.8176 9.42242C15.2244 10.0481 13.7774 11.0054 12.5695 12.2329C11.3616 13.4605 10.4194 14.9312 9.80345 16.5508C9.10365 18.4455 8.7262 20.4476 8.68727 22.4712C8.57272 25.0766 8.53809 25.9026 8.53809 32.5191C8.53809 39.1328 8.53809 39.9751 8.68727 42.567C8.72723 44.5928 9.10284 46.5916 9.80345 48.4901C10.4212 50.1091 11.3642 51.5792 12.5724 52.8066C13.7806 54.034 15.2274 54.9917 16.8203 55.6185C18.6782 56.3584 20.6467 56.7705 22.641 56.8372C25.2063 56.951 26.0188 56.9862 32.5242 56.9862C39.0295 56.9862 39.8633 56.9862 42.4074 56.8372C44.3976 56.7961 46.3666 56.4124 48.2307 55.7024C49.8231 55.0746 51.2693 54.1162 52.4769 52.8884C53.6846 51.6606 54.6273 50.1903 55.2449 48.5714C55.9455 46.6756 56.3211 44.6768 56.361 42.651C56.4756 40.0456 56.5102 39.2195 56.5102 32.603C56.5102 25.9866 56.5102 25.147 56.361 22.5551C56.33 20.503 55.9506 18.4716 55.2395 16.5508ZM51.9949 42.3666C51.9777 43.9274 51.6975 45.4737 51.1664 46.9383C50.7663 47.9914 50.1539 48.9478 49.3684 49.7459C48.5829 50.544 47.6419 51.1661 46.6057 51.5722C45.1811 52.1097 43.6763 52.3946 42.1569 52.4145C39.6262 52.5337 38.9123 52.5635 32.4229 52.5635C25.9283 52.5635 25.2649 52.5635 22.6862 52.4145C21.1676 52.3956 19.6635 52.1107 18.2401 51.5722C17.2004 51.1686 16.2555 50.5476 15.4667 49.7494C14.6779 48.9512 14.0626 47.9935 13.6608 46.9383C13.1372 45.4894 12.8572 43.9614 12.8323 42.418C12.7178 39.8451 12.6912 39.1193 12.6912 32.5218C12.6912 25.9216 12.6912 25.2472 12.8323 22.6228C12.8496 21.0629 13.1298 19.5175 13.6608 18.0539C14.4733 15.917 16.1383 14.2351 18.2401 13.4172C19.6642 12.8813 21.1679 12.5965 22.6862 12.5749C25.2196 12.4585 25.9309 12.426 32.4229 12.426C38.9149 12.426 39.5809 12.426 42.1569 12.5749C43.6765 12.5935 45.1815 12.8784 46.6057 13.4172C47.6418 13.8242 48.5827 14.4469 49.3681 15.2454C50.1535 16.0439 50.766 17.0005 51.1664 18.0539C51.69 19.5027 51.97 21.0308 51.9949 22.5741C52.1094 25.1497 52.1387 25.8728 52.1387 32.473C52.1387 39.0705 52.1387 39.7801 52.0242 42.3693H51.9949V42.3666Z" fill="#303030"/>
</svg>
