<svg width="37" height="38" viewBox="0 0 37 38" fill="none" xmlns="http://www.w3.org/2000/svg">
<g clip-path="url(#clip0)">
<path d="M23.8831 0.328766H12.664C2.42604 0.328766 -0.000976562 2.80854 -0.000976562 13.2691V24.7321C-0.000976562 35.1926 2.42604 37.6724 12.664 37.6724H23.8831C34.1211 37.6724 36.5481 35.1926 36.5481 24.7321V13.2691C36.5481 2.80854 34.0971 0.328766 23.8831 0.328766ZM29.5046 26.9679H26.8515C25.8464 26.9679 25.5369 26.1534 23.7289 24.2816C22.1585 22.7261 21.4629 22.5195 21.0758 22.5195C20.5287 22.5195 20.3734 22.6771 20.3734 23.4438V25.8932C20.3734 26.5502 20.1712 26.9446 18.4694 26.9446C15.6553 26.9446 12.5327 25.2058 10.3432 21.9664C7.04136 17.2192 6.13794 13.6635 6.13794 12.9283C6.13794 12.5328 6.29212 12.1628 7.03565 12.1628H9.69451C10.3672 12.1628 10.6231 12.4791 10.8846 13.2142C12.1992 17.092 14.3886 20.489 15.2921 20.489C15.6256 20.489 15.7797 20.3315 15.7797 19.4621V15.4571C15.6781 13.6098 14.7267 13.4511 14.7267 12.7953C14.7267 12.4791 14.9825 12.1628 15.3926 12.1628H19.5739C20.1392 12.1628 20.3471 12.4791 20.3471 13.1594V18.5624C20.3471 19.1459 20.6029 19.3524 20.7571 19.3524C21.0906 19.3524 21.3761 19.1459 21.994 18.5134C23.9037 16.3253 25.2719 12.9517 25.2719 12.9517C25.4501 12.5561 25.7596 12.1862 26.4323 12.1862H29.0912C29.8884 12.1862 30.0666 12.6051 29.8884 13.1886C29.5549 14.7686 26.301 19.4609 26.301 19.4609C26.0212 19.9347 25.9138 20.1413 26.301 20.6699C26.5865 21.0655 27.5151 21.8859 28.1329 22.6211C29.2694 23.9397 30.1431 25.046 30.3761 25.8115C30.6376 26.5712 30.2516 26.9668 29.5012 26.9668L29.5046 26.9679Z" fill="#303030"/>
</g>
<defs>
<clipPath id="clip0">
<rect y="0.328766" width="36.5479" height="37.3425" fill="white"/>
</clipPath>
</defs>
</svg>
