<svg width="38" height="38" viewBox="0 0 38 38" fill="none" xmlns="http://www.w3.org/2000/svg">
<g clip-path="url(#clip0)">
<path d="M24.8145 0.328766H13.5954C3.35743 0.328766 0.93042 2.80854 0.93042 13.2691V24.7321C0.93042 35.1926 3.35743 37.6724 13.5954 37.6724H24.8145C35.0525 37.6724 37.4795 35.1926 37.4795 24.7321V13.2691C37.4795 2.80854 35.0285 0.328766 24.8145 0.328766ZM30.436 26.9679H27.7829C26.7778 26.9679 26.4683 26.1534 24.6603 24.2816C23.0899 22.7261 22.3943 22.5195 22.0072 22.5195C21.4601 22.5195 21.3048 22.6771 21.3048 23.4438V25.8932C21.3048 26.5502 21.1026 26.9446 19.4008 26.9446C16.5866 26.9446 13.4641 25.2058 11.2746 21.9664C7.97275 17.2192 7.06933 13.6635 7.06933 12.9283C7.06933 12.5328 7.22352 12.1628 7.96704 12.1628H10.6259C11.2986 12.1628 11.5545 12.4791 11.816 13.2142C13.1306 17.092 15.32 20.489 16.2235 20.489C16.557 20.489 16.7111 20.3315 16.7111 19.4621V15.4571C16.6095 13.6098 15.6581 13.4511 15.6581 12.7953C15.6581 12.4791 15.9139 12.1628 16.324 12.1628H20.5053C21.0706 12.1628 21.2785 12.4791 21.2785 13.1594V18.5624C21.2785 19.1459 21.5343 19.3524 21.6885 19.3524C22.022 19.3524 22.3075 19.1459 22.9254 18.5134C24.8351 16.3253 26.2033 12.9517 26.2033 12.9517C26.3815 12.5561 26.691 12.1862 27.3637 12.1862H30.0226C30.8198 12.1862 30.998 12.6051 30.8198 13.1886C30.4863 14.7686 27.2324 19.4609 27.2324 19.4609C26.9526 19.9347 26.8452 20.1413 27.2324 20.6699C27.5179 21.0655 28.4465 21.8859 29.0643 22.6211C30.2008 23.9397 31.0745 25.046 31.3075 25.8115C31.569 26.5712 31.183 26.9668 30.4326 26.9668L30.436 26.9679Z" fill="#303030"/>
</g>
<defs>
<clipPath id="clip0">
<rect x="0.931396" y="0.328766" width="36.5479" height="37.3425" fill="white"/>
</clipPath>
</defs>
</svg>
