<svg width="55" height="37" viewBox="0 0 55 37" fill="none" xmlns="http://www.w3.org/2000/svg">
<path d="M54.0499 9.575C53.5582 5.6375 53.0666 2.75 51.5916 1.7C50.1166 0.3875 37.3332 0.125 27.4999 0.125C17.6666 0.125 4.88325 0.3875 3.40825 1.7C1.93325 2.75 1.44159 5.6375 0.949919 9.575C0.458252 13.5125 0.458252 15.875 0.458252 18.5C0.458252 21.125 0.458252 23.4875 0.949919 27.425C1.44159 31.3625 1.93325 34.25 3.40825 35.3C4.88325 36.6125 17.6666 36.875 27.4999 36.875C37.3332 36.875 50.1166 36.6125 51.5916 35.3C53.0666 34.25 53.5582 31.3625 54.0499 27.425C54.5416 23.4875 54.5416 21.125 54.5416 18.5C54.5416 15.875 54.5416 13.5125 54.0499 9.575ZM22.5832 27.95V9.05L37.3332 18.5L22.5832 27.95Z" fill="#303030"/>
</svg>
