<svg width="55" height="37" viewBox="0 0 55 37" fill="none" xmlns="http://www.w3.org/2000/svg">
<path d="M54.1732 9.575C53.6815 5.6375 53.1899 2.75 51.7149 1.7C50.2399 0.3875 37.4565 0.125 27.6232 0.125C17.7899 0.125 5.00654 0.3875 3.53154 1.7C2.05654 2.75 1.56488 5.6375 1.07321 9.575C0.581543 13.5125 0.581543 15.875 0.581543 18.5C0.581543 21.125 0.581543 23.4875 1.07321 27.425C1.56488 31.3625 2.05654 34.25 3.53154 35.3C5.00654 36.6125 17.7899 36.875 27.6232 36.875C37.4565 36.875 50.2399 36.6125 51.7149 35.3C53.1899 34.25 53.6815 31.3625 54.1732 27.425C54.6649 23.4875 54.6649 21.125 54.6649 18.5C54.6649 15.875 54.6649 13.5125 54.1732 9.575ZM22.7065 27.95V9.05L37.4565 18.5L22.7065 27.95Z" fill="#303030"/>
</svg>
