<svg width="51" height="58" viewBox="0 0 51 58" fill="none" xmlns="http://www.w3.org/2000/svg">
<path d="M48.45 20.7833C48.025 17.1583 47.6 14.5 46.325 13.5333C45.05 12.325 34 12.0833 25.5 12.0833C17 12.0833 5.95 12.325 4.675 13.5333C3.4 14.5 2.975 17.1583 2.55 20.7833C2.125 24.4083 2.125 26.5833 2.125 29C2.125 31.4167 2.125 33.5917 2.55 37.2167C2.975 40.8417 3.4 43.5 4.675 44.4667C5.95 45.675 17 45.9167 25.5 45.9167C34 45.9167 45.05 45.675 46.325 44.4667C47.6 43.5 48.025 40.8417 48.45 37.2167C48.875 33.5917 48.875 31.4167 48.875 29C48.875 26.5833 48.875 24.4083 48.45 20.7833ZM21.25 37.7V20.3L34 29L21.25 37.7Z" fill="#303030"/>
</svg>
