<svg width="38" height="39" viewBox="0 0 38 39" fill="none" xmlns="http://www.w3.org/2000/svg">
<path d="M23.6403 19.5L36.6286 5.95506C37.245 5.31336 37.5918 4.44257 37.5925 3.53426C37.5933 2.62595 37.248 1.75452 36.6327 1.11168C36.0174 0.468845 35.1824 0.107251 34.3114 0.106449C33.4404 0.105647 32.6048 0.465702 31.9884 1.10741L19.0001 14.6523L6.0118 1.10741C5.39538 0.464568 4.55933 0.103424 3.68758 0.103424C2.81583 0.103424 1.97978 0.464568 1.36336 1.10741C0.746937 1.75025 0.400635 2.62212 0.400635 3.53124C0.400635 4.44035 0.746937 5.31222 1.36336 5.95506L14.3516 19.5L1.36336 33.0449C0.746937 33.6877 0.400635 34.5596 0.400635 35.4687C0.400635 36.3778 0.746937 37.2497 1.36336 37.8926C1.97978 38.5354 2.81583 38.8965 3.68758 38.8965C4.55933 38.8965 5.39538 38.5354 6.0118 37.8926L19.0001 24.3476L31.9884 37.8926C32.6048 38.5354 33.4408 38.8965 34.3126 38.8965C35.1843 38.8965 36.0204 38.5354 36.6368 37.8926C37.2532 37.2497 37.5995 36.3778 37.5995 35.4687C37.5995 34.5596 37.2532 33.6877 36.6368 33.0449L23.6403 19.5Z" fill="black"/>
</svg>
