<svg width="60" height="18" viewBox="0 0 60 18" fill="none" xmlns="http://www.w3.org/2000/svg">
<path d="M0 8.88938C0 9.9082 0.76305 10.734 1.70442 10.734C2.16992 10.734 2.59209 10.5322 2.8997 10.2049L2.8997 14L5.74039 14C5.37931 13.6617 5.15033 13.1616 5.15033 12.6042C5.15033 11.5854 5.91337 10.7596 6.85473 10.7596C7.7961 10.7596 8.55913 11.5854 8.55913 12.6042C8.55913 13.1616 8.33016 13.6617 7.96908 14H12V10.0133C11.6876 10.4349 11.208 10.7048 10.6698 10.7048C9.72844 10.7048 8.96543 9.87903 8.96543 8.8602C8.96543 7.84139 9.72848 7.01559 10.6698 7.01559C11.208 7.01559 11.6876 7.28553 12 7.7071L12 4.15102H8.43945C8.7489 3.81705 8.94015 3.35499 8.94015 2.84463C8.94015 1.82581 8.1771 1 7.23574 1C6.29434 1 5.53133 1.82583 5.53133 2.84463C5.53133 3.35498 5.72258 3.81705 6.03203 4.15102H2.89969L2.89969 7.57387C2.59206 7.2464 2.16998 7.04474 1.70441 7.04474C0.76304 7.04474 0 7.87057 0 8.88938Z" fill="url(#paint0_linear_411_6)"/>
<path d="M8.77932 15.2477C9.58365 15.7964 10.6925 15.6053 11.2563 14.8209C11.535 14.4331 11.6286 13.9727 11.5544 13.5401L14.5504 15.5839L16.2516 13.217C15.7683 13.3357 15.2364 13.2571 14.7963 12.9569C13.992 12.4083 13.797 11.3277 14.3607 10.5434C14.9245 9.759 16.0334 9.56797 16.8377 10.1167C17.2777 10.4168 17.5355 10.877 17.5863 11.36L20.0002 8.00135L16.8529 5.85434C16.9986 6.34165 16.9245 6.88666 16.6022 7.33507C16.0385 8.11946 14.9296 8.31048 14.1253 7.76179C13.321 7.21311 13.126 6.13259 13.6897 5.34823C14.012 4.89984 14.5123 4.64559 15.0322 4.61232L12.2248 2.6972L10.0926 5.66393C10.0142 5.22623 9.76397 4.81803 9.36106 4.54318C8.55674 3.99449 7.44784 4.18554 6.8841 4.9699C6.32034 5.7543 6.51537 6.8348 7.31968 7.38347C7.72258 7.65832 8.2019 7.74782 8.65087 7.66984L6.77506 10.2798L9.47727 12.1231C9.03452 12.2031 8.62255 12.4462 8.34374 12.8341C7.78 13.6185 7.97501 14.699 8.77932 15.2477Z" fill="url(#paint1_linear_411_6)"/>
<path d="M25.8164 4.98516L24.7844 8.71316H24.0404L23.0724 5.08916C23.0777 5.73983 23.0884 6.39583 23.1044 7.05716C23.1257 7.7185 23.1417 8.36383 23.1524 8.99316H21.8884C21.899 8.44383 21.907 7.89983 21.9124 7.36116C21.9177 6.81716 21.9204 6.2705 21.9204 5.72116C21.9204 5.17183 21.9177 4.62783 21.9124 4.08916C21.907 3.54516 21.899 2.9985 21.8884 2.44916H23.6004L24.4484 6.20116L25.4004 2.44916H27.0164C27.0004 3.53716 26.9924 4.62783 26.9924 5.72116C26.9924 6.8145 27.0004 7.90516 27.0164 8.99316H25.7364L25.8164 4.98516ZM30.1627 4.12116C30.8133 4.12116 31.2773 4.3345 31.5547 4.76116C31.8373 5.18783 31.9787 5.80116 31.9787 6.60116C31.9787 7.4065 31.8373 8.0225 31.5547 8.44916C31.2773 8.8705 30.8133 9.08116 30.1627 9.08116C29.5067 9.08116 29.0373 8.8705 28.7547 8.44916C28.4773 8.0225 28.3387 7.4065 28.3387 6.60116C28.3387 5.80116 28.4773 5.18783 28.7547 4.76116C29.0373 4.3345 29.5067 4.12116 30.1627 4.12116ZM30.1627 7.20116C30.2693 7.20116 30.3627 7.17983 30.4427 7.13716C30.528 7.0945 30.5973 7.0385 30.6507 6.96916C30.704 6.89983 30.744 6.8225 30.7707 6.73716C30.7973 6.6465 30.8107 6.55316 30.8107 6.45716C30.8107 6.36116 30.7973 6.26783 30.7707 6.17716C30.744 6.0865 30.704 6.0065 30.6507 5.93716C30.5973 5.86783 30.528 5.81183 30.4427 5.76916C30.3627 5.7265 30.2693 5.70516 30.1627 5.70516C29.944 5.70516 29.7787 5.7825 29.6667 5.93716C29.56 6.09183 29.5067 6.26516 29.5067 6.45716C29.5067 6.55316 29.52 6.6465 29.5467 6.73716C29.5733 6.8225 29.6133 6.89983 29.6667 6.96916C29.7253 7.0385 29.7947 7.0945 29.8747 7.13716C29.9547 7.17983 30.0507 7.20116 30.1627 7.20116ZM33.2068 8.99316C33.1801 8.8865 33.1615 8.76916 33.1508 8.64116C33.1455 8.51316 33.1428 8.3825 33.1428 8.24916C33.1428 8.08383 33.1481 7.92916 33.1588 7.78516C33.1748 7.64116 33.1961 7.49716 33.2228 7.35316L34.9108 5.81716H33.3668C33.3508 5.7105 33.3375 5.5905 33.3268 5.45716C33.3161 5.3185 33.3108 5.17183 33.3108 5.01716C33.3108 4.86783 33.3161 4.72383 33.3268 4.58516C33.3375 4.4465 33.3508 4.32116 33.3668 4.20916H36.3908C36.4015 4.30516 36.4095 4.40383 36.4148 4.50516C36.4255 4.6065 36.4308 4.7185 36.4308 4.84116C36.4308 4.9265 36.4281 5.02783 36.4228 5.14516C36.4175 5.2625 36.4068 5.41183 36.3908 5.59316L34.4708 7.28916H36.4148C36.4308 7.41183 36.4441 7.54783 36.4548 7.69716C36.4655 7.84116 36.4708 7.9905 36.4708 8.14516C36.4708 8.30516 36.4655 8.45983 36.4548 8.60916C36.4441 8.75316 36.4308 8.88116 36.4148 8.99316H33.2068ZM41.6272 8.99316H40.5312V8.60116C40.3392 8.75583 40.1365 8.87583 39.9232 8.96116C39.7098 9.04116 39.5018 9.08116 39.2992 9.08116C39.0592 9.08116 38.8378 9.0225 38.6352 8.90516C38.4325 8.78783 38.2565 8.62516 38.1072 8.41716C37.9632 8.20383 37.8485 7.9505 37.7632 7.65716C37.6778 7.36383 37.6352 7.04383 37.6352 6.69716C37.6352 6.3345 37.6805 5.99583 37.7712 5.68116C37.8618 5.3665 37.9845 5.0945 38.1392 4.86516C38.2992 4.6305 38.4858 4.44916 38.6992 4.32116C38.9178 4.18783 39.1525 4.12116 39.4032 4.12116C39.6218 4.12116 39.8298 4.16916 40.0272 4.26516C40.2245 4.35583 40.3925 4.4705 40.5312 4.60916V4.20916H41.6672L41.6272 8.99316ZM39.1632 6.10516C39.1632 6.32383 39.2218 6.49983 39.3392 6.63316C39.4618 6.7665 39.6165 6.83316 39.8032 6.83316C40.0058 6.83316 40.1765 6.76116 40.3152 6.61716C40.4592 6.47316 40.5312 6.28916 40.5312 6.06516C40.5312 5.96383 40.5125 5.86783 40.4752 5.77716C40.4432 5.6865 40.3952 5.60916 40.3312 5.54516C40.2672 5.47583 40.1925 5.4225 40.1072 5.38516C40.0218 5.34783 39.9312 5.32916 39.8352 5.32916C39.6432 5.32916 39.4832 5.40116 39.3552 5.54516C39.2272 5.68916 39.1632 5.87583 39.1632 6.10516ZM43.0601 4.33716H44.2361V8.99316H43.0601V4.33716ZM43.6761 2.35316C43.8041 2.35316 43.9187 2.37983 44.0201 2.43316C44.1267 2.48116 44.2147 2.54516 44.2841 2.62516C44.3534 2.70516 44.4067 2.79583 44.4441 2.89716C44.4814 2.99316 44.5001 3.0865 44.5001 3.17716C44.5001 3.29983 44.4761 3.4145 44.4281 3.52116C44.3854 3.6225 44.3241 3.71316 44.2441 3.79316C44.1694 3.86783 44.0814 3.92916 43.9801 3.97716C43.8841 4.01983 43.7801 4.04116 43.6681 4.04116C43.5294 4.04116 43.4067 4.01983 43.3001 3.97716C43.1934 3.92916 43.1027 3.8705 43.0281 3.80116C42.9587 3.7265 42.9054 3.64116 42.8681 3.54516C42.8361 3.44916 42.8201 3.3505 42.8201 3.24916C42.8201 3.14783 42.8387 3.04383 42.8761 2.93716C42.9187 2.8305 42.9747 2.7345 43.0441 2.64916C43.1187 2.5585 43.2094 2.4865 43.3161 2.43316C43.4227 2.37983 43.5427 2.35316 43.6761 2.35316ZM47.8538 4.12116C48.1685 4.12116 48.4538 4.1665 48.7098 4.25716C48.7098 4.34783 48.7098 4.4465 48.7098 4.55316C48.7151 4.6545 48.7178 4.7585 48.7178 4.86516C48.7178 4.97716 48.7151 5.08916 48.7098 5.20116C48.7098 5.31316 48.7098 5.41716 48.7098 5.51316C48.5338 5.36383 48.3178 5.28916 48.0618 5.28916C47.9018 5.28916 47.7685 5.31583 47.6618 5.36916C47.5551 5.41716 47.4671 5.48116 47.3978 5.56116C47.3338 5.64116 47.2885 5.72916 47.2618 5.82516C47.2351 5.91583 47.2218 6.00383 47.2218 6.08916C47.2218 6.2065 47.2431 6.3185 47.2858 6.42516C47.3285 6.5265 47.3871 6.61716 47.4618 6.69716C47.5365 6.77716 47.6218 6.84116 47.7178 6.88916C47.8191 6.93183 47.9258 6.95316 48.0378 6.95316C48.1445 6.95316 48.2565 6.93183 48.3738 6.88916C48.4911 6.8465 48.6031 6.78783 48.7098 6.71316C48.7098 6.88916 48.7098 7.07316 48.7098 7.26516C48.7151 7.45183 48.7178 7.64116 48.7178 7.83316C48.7178 8.01983 48.7151 8.21183 48.7098 8.40916C48.7098 8.60116 48.7098 8.79316 48.7098 8.98516C48.4111 9.04916 48.1151 9.08116 47.8218 9.08116C47.4591 9.08116 47.1365 9.02516 46.8538 8.91316C46.5711 8.79583 46.3311 8.6305 46.1338 8.41716C45.9365 8.20383 45.7845 7.94516 45.6778 7.64116C45.5765 7.33183 45.5258 6.98783 45.5258 6.60916C45.5258 6.25183 45.5738 5.92116 45.6698 5.61716C45.7658 5.30783 45.9098 5.04383 46.1018 4.82516C46.2991 4.6065 46.5418 4.43583 46.8298 4.31316C47.1231 4.18516 47.4645 4.12116 47.8538 4.12116Z" fill="url(#paint2_linear_411_6)"/>
<path d="M28.2725 13.6636C28.2725 13.9119 28.2155 14.1341 28.1016 14.3301C27.9876 14.5238 27.8407 14.6878 27.6606 14.8223C27.4806 14.9544 27.2801 15.0558 27.0591 15.1265C26.8403 15.1971 26.6239 15.2324 26.4097 15.2324C26.0086 15.2324 25.6383 15.1595 25.2988 15.0137C24.9593 14.8678 24.6574 14.6536 24.3931 14.3711V14.4531C24.3931 14.526 24.3942 14.5978 24.3965 14.6685C24.3988 14.7391 24.4022 14.8097 24.4067 14.8804V14.894C24.4067 14.9396 24.3908 14.9795 24.3589 15.0137C24.3293 15.0479 24.2894 15.0672 24.2393 15.0718C24.1868 15.0718 24.1436 15.0558 24.1094 15.0239C24.0752 14.992 24.0558 14.951 24.0513 14.9009C24.0467 14.828 24.0433 14.755 24.041 14.6821C24.0387 14.6069 24.0376 14.5329 24.0376 14.46C24.0376 14.2275 24.049 14.0133 24.0718 13.8174C24.0946 13.6191 24.1253 13.4232 24.1641 13.2295C24.1755 13.1862 24.196 13.1509 24.2256 13.1235C24.2575 13.0962 24.2951 13.0825 24.3384 13.0825C24.3908 13.0825 24.4341 13.103 24.4683 13.144C24.5024 13.1828 24.5195 13.2227 24.5195 13.2637C24.5195 13.2682 24.5195 13.2739 24.5195 13.2808C24.5195 13.2853 24.5173 13.291 24.5127 13.2979C24.5013 13.3503 24.491 13.3993 24.4819 13.4448C24.4751 13.4881 24.4671 13.5314 24.458 13.5747C24.4512 13.6157 24.4443 13.659 24.4375 13.7046C24.4329 13.7479 24.4272 13.7969 24.4204 13.8516C24.6756 14.1797 24.9673 14.4326 25.2954 14.6104C25.6235 14.7858 25.9927 14.8735 26.4028 14.8735C26.519 14.8735 26.6432 14.8633 26.7754 14.8428C26.9098 14.8223 27.0329 14.7858 27.1445 14.7334C27.2585 14.6787 27.3519 14.6069 27.4248 14.5181C27.5 14.4269 27.5376 14.3118 27.5376 14.1729C27.5376 14.0749 27.5114 13.986 27.459 13.9062C27.4066 13.8242 27.3382 13.7513 27.2539 13.6875C27.1696 13.6237 27.0739 13.5679 26.9668 13.52C26.862 13.4699 26.756 13.4266 26.6489 13.3901C26.5418 13.3537 26.4393 13.3241 26.3413 13.3013C26.2456 13.2762 26.1636 13.2568 26.0952 13.2432C25.9334 13.209 25.7728 13.1714 25.6133 13.1304C25.4538 13.0871 25.3022 13.0358 25.1587 12.9766C25.0151 12.9173 24.8818 12.8478 24.7588 12.7681C24.6357 12.6883 24.5286 12.5949 24.4375 12.4878C24.3486 12.3784 24.278 12.252 24.2256 12.1084C24.1755 11.9648 24.1504 11.7996 24.1504 11.6128C24.1504 11.4305 24.1743 11.263 24.2222 11.1104C24.2723 10.9554 24.3407 10.8164 24.4272 10.6934C24.5138 10.5703 24.6152 10.4632 24.7314 10.3721C24.8499 10.2786 24.9787 10.2012 25.1177 10.1396C25.2567 10.0758 25.4025 10.0291 25.5552 9.99951C25.7101 9.96761 25.8662 9.95166 26.0234 9.95166C26.1191 9.95166 26.2205 9.95964 26.3276 9.97559C26.437 9.98926 26.5452 10.0098 26.6523 10.0371C26.7594 10.0622 26.8643 10.0929 26.9668 10.1294C27.0716 10.1636 27.1685 10.2023 27.2573 10.2456C27.3462 10.2866 27.4248 10.3311 27.4932 10.3789C27.5615 10.4245 27.6162 10.4712 27.6572 10.519C27.6891 10.4325 27.7233 10.347 27.7598 10.2627C27.7985 10.1761 27.8384 10.0895 27.8794 10.0029C27.8976 9.97103 27.9204 9.9471 27.9478 9.93115C27.9774 9.91292 28.0081 9.90381 28.04 9.90381C28.0924 9.90381 28.1357 9.92318 28.1699 9.96191C28.2041 9.99837 28.2212 10.0394 28.2212 10.085C28.2212 10.11 28.2144 10.1362 28.2007 10.1636C28.0822 10.4097 27.9842 10.6569 27.9067 10.9053C27.8315 11.1514 27.778 11.4009 27.7461 11.6538C27.7415 11.6994 27.7222 11.737 27.688 11.7666C27.6561 11.7939 27.6174 11.8076 27.5718 11.8076C27.5194 11.8076 27.4761 11.7882 27.4419 11.7495C27.4077 11.7108 27.3906 11.672 27.3906 11.6333V11.6128C27.418 11.3713 27.467 11.1331 27.5376 10.8984C27.5239 10.8574 27.4886 10.8141 27.4316 10.7686C27.3747 10.7207 27.304 10.6751 27.2197 10.6318C27.1377 10.5885 27.0443 10.5475 26.9395 10.5088C26.8346 10.4678 26.7275 10.4325 26.6182 10.4028C26.5088 10.3732 26.3994 10.3493 26.29 10.3311C26.1807 10.3128 26.0804 10.3037 25.9893 10.3037C25.8503 10.3037 25.717 10.3185 25.5894 10.3481C25.4618 10.3778 25.3478 10.4256 25.2476 10.4917C25.1496 10.5578 25.0698 10.6432 25.0083 10.748C24.9468 10.8506 24.9149 10.9748 24.9126 11.1206C24.9217 11.2482 24.9559 11.3587 25.0151 11.4521C25.0767 11.5433 25.1519 11.623 25.2407 11.6914C25.3319 11.7598 25.4344 11.8179 25.5483 11.8657C25.6623 11.9113 25.7773 11.9512 25.8936 11.9854C26.012 12.0173 26.1271 12.0457 26.2388 12.0708C26.3504 12.0936 26.4518 12.1152 26.543 12.1357C26.7731 12.1904 26.993 12.252 27.2026 12.3203C27.4123 12.3887 27.5957 12.4787 27.7529 12.5903C27.9124 12.702 28.0389 12.8444 28.1323 13.0176C28.2257 13.1885 28.2725 13.4038 28.2725 13.6636ZM31.6118 11.6675C31.6118 11.7131 31.5959 11.7541 31.564 11.7905C31.5343 11.8247 31.4967 11.8441 31.4512 11.8486C31.3031 11.86 31.1561 11.8703 31.0103 11.8794C30.8644 11.8885 30.7174 11.8953 30.5693 11.8999V14.2925C30.5693 14.3381 30.5785 14.3802 30.5967 14.4189C30.6172 14.4577 30.6423 14.4907 30.6719 14.5181C30.7038 14.5454 30.7391 14.5671 30.7778 14.583C30.8166 14.599 30.8564 14.6069 30.8975 14.6069C30.959 14.6069 31.0091 14.591 31.0479 14.5591C31.0889 14.5249 31.123 14.4839 31.1504 14.436C31.1777 14.3859 31.1994 14.3335 31.2153 14.2788C31.2336 14.2241 31.2484 14.1751 31.2598 14.1318C31.2666 14.0908 31.2871 14.0578 31.3213 14.0327C31.3555 14.0054 31.3931 13.9917 31.4341 13.9917C31.4865 13.9917 31.5286 14.0122 31.5605 14.0532C31.5947 14.092 31.6118 14.1318 31.6118 14.1729V14.2104C31.5457 14.5135 31.4159 14.7482 31.2222 14.9146C31.0285 15.0786 30.7892 15.1606 30.5044 15.1606C30.3745 15.1606 30.2412 15.1436 30.1045 15.1094C29.9678 15.0752 29.8436 15.0114 29.7319 14.918C29.6226 14.8245 29.5326 14.6958 29.4619 14.5317C29.3913 14.3654 29.356 14.1501 29.356 13.8857V11.8931C29.2534 11.8862 29.1497 11.8794 29.0449 11.8726C28.9424 11.8657 28.8387 11.8577 28.7339 11.8486C28.6883 11.8418 28.6496 11.8213 28.6177 11.7871C28.5881 11.7529 28.5732 11.7131 28.5732 11.6675C28.5732 11.6151 28.5926 11.5729 28.6313 11.541C28.6724 11.5091 28.7134 11.4932 28.7544 11.4932H28.7681C28.8683 11.5 28.9663 11.5068 29.062 11.5137C29.16 11.5205 29.258 11.5273 29.356 11.5342V10.3721C29.356 10.3333 29.3685 10.298 29.3936 10.2661C29.4186 10.2319 29.4505 10.2091 29.4893 10.1978L30.3438 9.96875C30.3506 9.96419 30.3586 9.96191 30.3677 9.96191C30.3768 9.95964 30.3848 9.9585 30.3916 9.9585C30.444 9.9585 30.4862 9.97786 30.5181 10.0166C30.5522 10.0553 30.5693 10.0975 30.5693 10.1431V11.541C30.7083 11.5365 30.8485 11.5308 30.9897 11.5239C31.1333 11.5148 31.2769 11.5046 31.4204 11.4932H31.4341C31.4842 11.4932 31.5264 11.5114 31.5605 11.5479C31.5947 11.582 31.6118 11.6219 31.6118 11.6675ZM35.1665 13.2979C35.0822 13.2979 35.0024 13.2819 34.9272 13.25C34.8543 13.2181 34.7905 13.1748 34.7358 13.1201C34.6812 13.0654 34.6379 13.0016 34.606 12.9287C34.5741 12.8535 34.5581 12.7738 34.5581 12.6895C34.5581 12.6051 34.5741 12.5265 34.606 12.4536C34.6379 12.3784 34.6812 12.3135 34.7358 12.2588C34.7905 12.2018 34.8543 12.1574 34.9272 12.1255C35.0024 12.0913 35.0822 12.0742 35.1665 12.0742C35.1779 12.0742 35.1882 12.0754 35.1973 12.0776C35.2087 12.0799 35.2201 12.0811 35.2314 12.0811C35.1722 12.0355 35.1027 12.0013 35.0229 11.9785C34.9455 11.9535 34.8555 11.9409 34.7529 11.9409C34.623 11.9409 34.5103 11.9683 34.4146 12.0229C34.3188 12.0754 34.2368 12.1426 34.1685 12.2246C34.1024 12.3044 34.0488 12.3921 34.0078 12.4878C33.9668 12.5812 33.9338 12.6701 33.9087 12.7544C33.8859 12.8364 33.87 12.9071 33.8608 12.9663C33.854 13.0256 33.8506 13.0597 33.8506 13.0688L33.8438 14.5864C33.9235 14.5933 34.0033 14.6035 34.083 14.6172C34.165 14.6309 34.2482 14.6445 34.3325 14.6582C34.3758 14.6696 34.4111 14.6924 34.4385 14.7266C34.4658 14.7585 34.4795 14.7961 34.4795 14.8394C34.4795 14.8895 34.4601 14.9316 34.4214 14.9658C34.3826 14.9977 34.3416 15.0137 34.2983 15.0137H34.2642C34.0796 14.9795 33.9041 14.9533 33.7378 14.9351C33.5715 14.9168 33.4062 14.9077 33.2422 14.9077C33.0781 14.9077 32.9141 14.9168 32.75 14.9351C32.5859 14.9533 32.4116 14.9795 32.2271 15.0137H32.1929C32.1405 15.0137 32.0983 14.9966 32.0664 14.9624C32.0345 14.9259 32.0186 14.8849 32.0186 14.8394C32.0186 14.7961 32.0311 14.7585 32.0562 14.7266C32.0812 14.6924 32.1154 14.6696 32.1587 14.6582C32.2384 14.6445 32.3182 14.6309 32.3979 14.6172C32.4777 14.6035 32.5563 14.5933 32.6338 14.5864V12.04C32.4902 12.0332 32.3695 12.0241 32.2715 12.0127C32.1735 12.0013 32.1188 11.9933 32.1074 11.9888C32.0618 11.9842 32.0243 11.966 31.9946 11.9341C31.9673 11.8999 31.9536 11.86 31.9536 11.8145C31.9536 11.7575 31.973 11.7131 32.0117 11.6812C32.0527 11.6493 32.0938 11.6333 32.1348 11.6333H32.1587C32.161 11.6356 32.1872 11.6401 32.2373 11.647C32.2874 11.6515 32.3524 11.6572 32.4321 11.6641C32.5119 11.6709 32.603 11.6766 32.7056 11.6812C32.8104 11.6857 32.9163 11.688 33.0234 11.688C33.1328 11.688 33.2399 11.6846 33.3447 11.6777C33.4495 11.6709 33.5464 11.6584 33.6353 11.6401C33.6398 11.6356 33.6512 11.6333 33.6694 11.6333C33.7218 11.6333 33.7651 11.6527 33.7993 11.6914C33.8335 11.7279 33.8506 11.7689 33.8506 11.8145V12.0605C33.9486 11.9238 34.0716 11.811 34.2197 11.7222C34.3701 11.631 34.5479 11.5854 34.7529 11.5854C34.9079 11.59 35.0492 11.6174 35.1768 11.6675C35.3044 11.7153 35.4137 11.7826 35.5049 11.8691C35.5983 11.9535 35.6701 12.056 35.7202 12.1768C35.7726 12.2952 35.7988 12.4285 35.7988 12.5767C35.7988 12.6701 35.784 12.7601 35.7544 12.8467C35.7248 12.9333 35.6826 13.0107 35.6279 13.0791C35.5732 13.1452 35.506 13.1987 35.4263 13.2397C35.3488 13.2785 35.2622 13.2979 35.1665 13.2979ZM40.6318 11.606C40.6318 11.647 40.6182 11.6846 40.5908 11.7188C40.5658 11.7529 40.5304 11.7734 40.4849 11.7803C40.4051 11.7985 40.3254 11.8133 40.2456 11.8247C40.1659 11.8338 40.0872 11.8441 40.0098 11.8555L39.9551 14.6855C40.0348 14.6855 40.1157 14.6878 40.1978 14.6924C40.2821 14.6947 40.3641 14.7015 40.4438 14.7129C40.494 14.7174 40.5327 14.738 40.5601 14.7744C40.5897 14.8086 40.6045 14.8462 40.6045 14.8872C40.6045 14.9442 40.5851 14.9886 40.5464 15.0205C40.5099 15.0547 40.4712 15.0718 40.4302 15.0718H40.4097C40.3162 15.0604 40.224 15.0524 40.1328 15.0479C40.0439 15.0433 39.9562 15.041 39.8696 15.041C39.7124 15.041 39.5563 15.049 39.4014 15.0649C39.2487 15.0809 39.0972 15.106 38.9468 15.1401H38.9092C38.8613 15.1401 38.8192 15.1219 38.7827 15.0854C38.7463 15.0513 38.728 15.0114 38.728 14.9658V14.959L38.7485 14.3335C38.605 14.5955 38.4375 14.7961 38.2461 14.9351C38.0547 15.0718 37.8416 15.1401 37.6069 15.1401C37.4588 15.1401 37.3278 15.1162 37.2139 15.0684C37.1022 15.0205 37.0031 14.9567 36.9165 14.877C36.8322 14.7949 36.7604 14.7015 36.7012 14.5967C36.6442 14.4896 36.5975 14.3779 36.561 14.2617C36.5269 14.1432 36.5018 14.0236 36.4858 13.9028C36.4699 13.7821 36.4619 13.667 36.4619 13.5576C36.4619 13.2591 36.4904 12.9663 36.5474 12.6792C36.6066 12.3921 36.6943 12.1209 36.8105 11.8657L36.1953 11.8486C36.1452 11.8441 36.103 11.8258 36.0688 11.7939C36.0369 11.7598 36.021 11.7176 36.021 11.6675C36.021 11.6219 36.0381 11.582 36.0723 11.5479C36.1064 11.5114 36.1497 11.4932 36.2021 11.4932L37.1045 11.5137C37.1546 11.5205 37.1956 11.541 37.2275 11.5752C37.2617 11.6071 37.2788 11.647 37.2788 11.6948C37.2788 11.7131 37.2754 11.7301 37.2686 11.7461C37.264 11.7598 37.2583 11.7734 37.2515 11.7871C37.2082 11.8304 37.1672 11.8953 37.1284 11.9819C37.0897 12.0685 37.0544 12.1676 37.0225 12.2793C36.9906 12.3887 36.9621 12.506 36.937 12.6313C36.9119 12.7544 36.8903 12.8752 36.8721 12.9937C36.8538 13.1099 36.8402 13.2181 36.8311 13.3184C36.8219 13.4186 36.8174 13.5007 36.8174 13.5645C36.8174 13.7057 36.8288 13.8493 36.8516 13.9951C36.8766 14.1387 36.9188 14.2697 36.978 14.3882C37.0373 14.5044 37.117 14.6001 37.2173 14.6753C37.3175 14.7482 37.4451 14.7847 37.6001 14.7847C37.7391 14.7847 37.8713 14.7448 37.9966 14.665C38.1219 14.583 38.2347 14.4668 38.335 14.3164C38.4375 14.166 38.5264 13.9826 38.6016 13.7661C38.679 13.5496 38.7406 13.3058 38.7861 13.0347L38.8271 11.6606C38.8271 11.6105 38.8465 11.5706 38.8853 11.541C38.924 11.5091 38.965 11.4932 39.0083 11.4932H39.0288C39.1063 11.5046 39.1849 11.5125 39.2646 11.5171C39.3444 11.5194 39.4276 11.5205 39.5142 11.5205C39.6532 11.5205 39.7979 11.5137 39.9482 11.5C40.1009 11.4863 40.2593 11.4635 40.4233 11.4316C40.4279 11.4316 40.4325 11.4305 40.437 11.4282C40.4416 11.4259 40.4461 11.4248 40.4507 11.4248C40.5031 11.4248 40.5464 11.4442 40.5806 11.4829C40.6147 11.5194 40.6318 11.5604 40.6318 11.606ZM44.354 12.7236C44.3472 12.7692 44.3255 12.8068 44.2891 12.8364C44.2549 12.866 44.215 12.8809 44.1694 12.8809C44.1239 12.8809 44.084 12.8649 44.0498 12.833C44.0179 12.8011 43.9997 12.7601 43.9951 12.71C43.9951 12.612 43.9746 12.5094 43.9336 12.4023C43.8926 12.2952 43.8368 12.1973 43.7661 12.1084C43.6955 12.0195 43.6146 11.9466 43.5234 11.8896C43.4323 11.8304 43.3354 11.8008 43.2329 11.8008C43.1053 11.8008 42.9925 11.8281 42.8945 11.8828C42.7965 11.9352 42.7111 12.0059 42.6382 12.0947C42.5653 12.1836 42.5049 12.285 42.457 12.3989C42.4092 12.5129 42.3704 12.6302 42.3408 12.751C42.3112 12.8695 42.2896 12.9868 42.2759 13.103C42.2645 13.2192 42.2588 13.3241 42.2588 13.4175C42.2588 13.577 42.2759 13.7365 42.3101 13.896C42.3465 14.0555 42.4012 14.1991 42.4741 14.3267C42.547 14.452 42.6405 14.5545 42.7544 14.6343C42.8683 14.714 43.0039 14.7539 43.1611 14.7539C43.2773 14.7539 43.3867 14.7277 43.4893 14.6753C43.5918 14.6229 43.6829 14.5557 43.7627 14.4736C43.8447 14.3893 43.9142 14.297 43.9712 14.1968C44.0282 14.0965 44.0692 13.9985 44.0942 13.9028C44.1056 13.8595 44.1261 13.8242 44.1558 13.7969C44.1877 13.7695 44.2253 13.7559 44.2686 13.7559C44.3187 13.7559 44.3608 13.7752 44.395 13.814C44.4315 13.8504 44.4497 13.8914 44.4497 13.937C44.4497 13.9507 44.4474 13.9621 44.4429 13.9712C44.4269 14.0464 44.3996 14.1284 44.3608 14.2173C44.3221 14.3062 44.2708 14.395 44.207 14.4839C44.1455 14.5728 44.0703 14.6593 43.9814 14.7437C43.8926 14.8257 43.7912 14.8986 43.6772 14.9624C43.5633 15.0262 43.4368 15.0775 43.2979 15.1162C43.1589 15.1549 43.0062 15.1743 42.8398 15.1743C42.5778 15.1743 42.3363 15.1299 42.1152 15.041C41.8942 14.9544 41.7039 14.8325 41.5444 14.6753C41.3849 14.5158 41.2596 14.3255 41.1685 14.1045C41.0796 13.8812 41.0352 13.6362 41.0352 13.3696C41.0352 13.0825 41.0739 12.8159 41.1514 12.5698C41.2311 12.3237 41.3462 12.1107 41.4966 11.9307C41.6493 11.7507 41.8361 11.6094 42.0571 11.5068C42.2804 11.4043 42.5368 11.353 42.8262 11.353C43.0859 11.353 43.3275 11.4054 43.5508 11.5103C43.7741 11.6128 43.9575 11.7677 44.1011 11.9751L44.2139 11.2778C44.2207 11.2345 44.2401 11.1992 44.272 11.1719C44.3062 11.1445 44.3449 11.1309 44.3882 11.1309C44.4451 11.1309 44.4896 11.1502 44.5215 11.189C44.5534 11.2277 44.5693 11.2664 44.5693 11.3052V11.3325L44.354 12.7236ZM47.7993 11.6675C47.7993 11.7131 47.7834 11.7541 47.7515 11.7905C47.7218 11.8247 47.6842 11.8441 47.6387 11.8486C47.4906 11.86 47.3436 11.8703 47.1978 11.8794C47.0519 11.8885 46.9049 11.8953 46.7568 11.8999V14.2925C46.7568 14.3381 46.766 14.3802 46.7842 14.4189C46.8047 14.4577 46.8298 14.4907 46.8594 14.5181C46.8913 14.5454 46.9266 14.5671 46.9653 14.583C47.0041 14.599 47.0439 14.6069 47.085 14.6069C47.1465 14.6069 47.1966 14.591 47.2354 14.5591C47.2764 14.5249 47.3105 14.4839 47.3379 14.436C47.3652 14.3859 47.3869 14.3335 47.4028 14.2788C47.4211 14.2241 47.4359 14.1751 47.4473 14.1318C47.4541 14.0908 47.4746 14.0578 47.5088 14.0327C47.543 14.0054 47.5806 13.9917 47.6216 13.9917C47.674 13.9917 47.7161 14.0122 47.748 14.0532C47.7822 14.092 47.7993 14.1318 47.7993 14.1729V14.2104C47.7332 14.5135 47.6034 14.7482 47.4097 14.9146C47.216 15.0786 46.9767 15.1606 46.6919 15.1606C46.562 15.1606 46.4287 15.1436 46.292 15.1094C46.1553 15.0752 46.0311 15.0114 45.9194 14.918C45.8101 14.8245 45.7201 14.6958 45.6494 14.5317C45.5788 14.3654 45.5435 14.1501 45.5435 13.8857V11.8931C45.4409 11.8862 45.3372 11.8794 45.2324 11.8726C45.1299 11.8657 45.0262 11.8577 44.9214 11.8486C44.8758 11.8418 44.8371 11.8213 44.8052 11.7871C44.7756 11.7529 44.7607 11.7131 44.7607 11.6675C44.7607 11.6151 44.7801 11.5729 44.8188 11.541C44.8599 11.5091 44.9009 11.4932 44.9419 11.4932H44.9556C45.0558 11.5 45.1538 11.5068 45.2495 11.5137C45.3475 11.5205 45.4455 11.5273 45.5435 11.5342V10.3721C45.5435 10.3333 45.556 10.298 45.5811 10.2661C45.6061 10.2319 45.638 10.2091 45.6768 10.1978L46.5312 9.96875C46.5381 9.96419 46.5461 9.96191 46.5552 9.96191C46.5643 9.95964 46.5723 9.9585 46.5791 9.9585C46.6315 9.9585 46.6737 9.97786 46.7056 10.0166C46.7397 10.0553 46.7568 10.0975 46.7568 10.1431V11.541C46.8958 11.5365 47.036 11.5308 47.1772 11.5239C47.3208 11.5148 47.4644 11.5046 47.6079 11.4932H47.6216C47.6717 11.4932 47.7139 11.5114 47.748 11.5479C47.7822 11.582 47.7993 11.6219 47.7993 11.6675ZM50.4517 15.0786C50.4471 15.0786 50.4414 15.0775 50.4346 15.0752C50.43 15.0729 50.4243 15.0718 50.4175 15.0718C50.2329 15.0353 50.0575 15.0091 49.8911 14.9932C49.7248 14.9749 49.5596 14.9658 49.3955 14.9658C49.2292 14.9658 49.064 14.9749 48.8999 14.9932C48.7358 15.0091 48.5627 15.0353 48.3804 15.0718C48.3735 15.0718 48.3678 15.0729 48.3633 15.0752C48.3587 15.0775 48.353 15.0786 48.3462 15.0786C48.2938 15.0786 48.2505 15.0592 48.2163 15.0205C48.1844 14.9818 48.1685 14.9396 48.1685 14.894C48.1685 14.853 48.181 14.8154 48.2061 14.7812C48.2334 14.7471 48.2676 14.7266 48.3086 14.7197C48.3883 14.7015 48.4681 14.6878 48.5479 14.6787C48.6299 14.6673 48.7096 14.6559 48.7871 14.6445V12.0264C48.6436 12.0195 48.5228 12.0104 48.4248 11.999C48.3268 11.9876 48.2721 11.9819 48.2607 11.9819C48.2152 11.9751 48.1776 11.9546 48.1479 11.9204C48.1206 11.8862 48.1069 11.8464 48.1069 11.8008C48.1069 11.7438 48.1274 11.7005 48.1685 11.6709C48.2095 11.6413 48.2493 11.6265 48.2881 11.6265H48.3086C48.3109 11.6265 48.3371 11.6299 48.3872 11.6367C48.4373 11.6413 48.5023 11.647 48.582 11.6538C48.6641 11.6606 48.7563 11.6675 48.8589 11.6743C48.9614 11.6789 49.0674 11.6812 49.1768 11.6812C49.2861 11.6812 49.3932 11.6777 49.498 11.6709C49.6029 11.6618 49.6986 11.647 49.7852 11.6265H49.8228C49.8752 11.6265 49.9185 11.6447 49.9526 11.6812C49.9868 11.7153 50.0039 11.7552 50.0039 11.8008L49.9971 14.6445C50.0768 14.6559 50.1566 14.6673 50.2363 14.6787C50.3184 14.6878 50.4015 14.7015 50.4858 14.7197C50.5291 14.7266 50.5645 14.7471 50.5918 14.7812C50.6191 14.8154 50.6328 14.853 50.6328 14.894C50.6328 14.9465 50.6134 14.9897 50.5747 15.0239C50.536 15.0604 50.495 15.0786 50.4517 15.0786ZM49.9561 10.584C49.9561 10.6683 49.9401 10.748 49.9082 10.8232C49.8763 10.8962 49.8319 10.96 49.7749 11.0146C49.7202 11.0693 49.6553 11.1126 49.5801 11.1445C49.5072 11.1764 49.4285 11.1924 49.3442 11.1924C49.2599 11.1924 49.1802 11.1764 49.105 11.1445C49.0321 11.1126 48.9683 11.0693 48.9136 11.0146C48.8589 10.96 48.8156 10.8962 48.7837 10.8232C48.7518 10.748 48.7358 10.6683 48.7358 10.584C48.7358 10.4997 48.7518 10.4211 48.7837 10.3481C48.8156 10.2729 48.8589 10.208 48.9136 10.1533C48.9683 10.0986 49.0321 10.0553 49.105 10.0234C49.1802 9.99154 49.2599 9.97559 49.3442 9.97559C49.4285 9.97559 49.5072 9.99154 49.5801 10.0234C49.6553 10.0553 49.7202 10.0986 49.7749 10.1533C49.8319 10.208 49.8763 10.2729 49.9082 10.3481C49.9401 10.4211 49.9561 10.4997 49.9561 10.584ZM54.2661 13.3047C54.2661 13.193 54.2536 13.0802 54.2285 12.9663C54.2035 12.8524 54.167 12.7419 54.1191 12.6348C54.0713 12.5277 54.0132 12.4274 53.9448 12.334C53.8765 12.2406 53.799 12.1597 53.7124 12.0913C53.6281 12.0207 53.5347 11.966 53.4321 11.9272C53.3319 11.8862 53.2248 11.8657 53.1108 11.8657C52.9832 11.8657 52.8716 11.8874 52.7759 11.9307C52.6825 11.9717 52.6004 12.0286 52.5298 12.1016C52.4591 12.1722 52.401 12.2542 52.3555 12.3477C52.3099 12.4411 52.2734 12.5402 52.2461 12.645C52.2188 12.7498 52.1994 12.8558 52.188 12.9629C52.1766 13.07 52.1709 13.1725 52.1709 13.2705C52.1709 13.3708 52.1755 13.4779 52.1846 13.5918C52.1937 13.7035 52.2096 13.8151 52.2324 13.9268C52.2552 14.0361 52.286 14.1421 52.3247 14.2446C52.3634 14.3472 52.4136 14.4372 52.4751 14.5146C52.5366 14.5921 52.6107 14.6536 52.6973 14.6992C52.7861 14.7448 52.891 14.7676 53.0117 14.7676C53.21 14.7676 53.3866 14.7266 53.5415 14.6445C53.6987 14.5602 53.8309 14.4497 53.938 14.313C54.0451 14.1763 54.126 14.0202 54.1807 13.8447C54.2376 13.6693 54.2661 13.4893 54.2661 13.3047ZM54.6216 13.3047C54.6216 13.5781 54.5726 13.8288 54.4746 14.0566C54.3766 14.2845 54.2445 14.4805 54.0781 14.6445C53.9118 14.8063 53.717 14.9328 53.4937 15.0239C53.2726 15.1151 53.0391 15.1606 52.793 15.1606C52.515 15.1606 52.2632 15.1162 52.0376 15.0273C51.8143 14.9408 51.6229 14.8166 51.4634 14.6548C51.3039 14.493 51.1808 14.2982 51.0942 14.0703C51.0099 13.8424 50.9678 13.5872 50.9678 13.3047C50.9678 13.0358 51.0145 12.7874 51.1079 12.5596C51.2013 12.3317 51.3301 12.1357 51.4941 11.9717C51.6582 11.8053 51.8507 11.6766 52.0718 11.5854C52.2951 11.492 52.5355 11.4453 52.793 11.4453C53.0618 11.4453 53.3079 11.4954 53.5312 11.5957C53.7568 11.6937 53.9505 11.8281 54.1123 11.999C54.2741 12.1676 54.3994 12.3647 54.4883 12.5903C54.5771 12.8159 54.6216 13.054 54.6216 13.3047ZM59.5059 14.8394C59.5013 14.8849 59.4808 14.9237 59.4443 14.9556C59.4079 14.9852 59.3669 15 59.3213 15H59.3076C59.1982 14.9886 59.0923 14.9806 58.9897 14.9761C58.8895 14.9692 58.7904 14.9658 58.6924 14.9658C58.5488 14.9658 58.411 14.9727 58.2788 14.9863C58.1489 14.9977 58.0213 15.0137 57.896 15.0342C57.8914 15.0342 57.8857 15.0353 57.8789 15.0376C57.8743 15.0399 57.8698 15.041 57.8652 15.041C57.8174 15.041 57.7752 15.0228 57.7388 14.9863C57.7023 14.9476 57.6841 14.9054 57.6841 14.8599C57.6841 14.8188 57.6978 14.7812 57.7251 14.7471C57.7547 14.7129 57.79 14.6924 57.8311 14.6855C57.9268 14.6673 58.0225 14.6536 58.1182 14.6445C58.2161 14.6331 58.3164 14.6229 58.4189 14.6138C58.4395 14.5431 58.4611 14.4474 58.4839 14.3267C58.5067 14.2059 58.5272 14.076 58.5454 13.937C58.5659 13.798 58.5819 13.6579 58.5933 13.5166C58.6069 13.3753 58.6138 13.2489 58.6138 13.1372C58.6138 13.021 58.6069 12.8945 58.5933 12.7578C58.5819 12.6211 58.5534 12.4935 58.5078 12.375C58.4645 12.2542 58.4007 12.154 58.3164 12.0742C58.2344 11.9945 58.1239 11.9546 57.9849 11.9546C57.8276 11.9546 57.6818 11.9933 57.5474 12.0708C57.4129 12.1483 57.2967 12.2474 57.1987 12.3682C57.103 12.4867 57.0267 12.6177 56.9697 12.7612C56.915 12.9048 56.8877 13.0426 56.8877 13.1748V13.1816L56.8809 14.6855C56.9219 14.6901 56.9618 14.6947 57.0005 14.6992C57.0392 14.7015 57.078 14.7061 57.1167 14.7129C57.1623 14.7174 57.1999 14.7368 57.2295 14.771C57.2614 14.8029 57.2773 14.8416 57.2773 14.8872C57.2773 14.9373 57.258 14.9806 57.2192 15.0171C57.1828 15.0535 57.1418 15.0718 57.0962 15.0718C57.0871 15.0718 57.0802 15.0684 57.0757 15.0615C56.939 15.0479 56.7988 15.0342 56.6553 15.0205C56.514 15.0068 56.3647 15 56.2075 15C56.0662 15 55.917 15.0068 55.7598 15.0205C55.6048 15.0365 55.4385 15.0604 55.2607 15.0923C55.2516 15.0968 55.2402 15.0991 55.2266 15.0991C55.1742 15.0991 55.132 15.0798 55.1001 15.041C55.0682 15.0023 55.0522 14.9601 55.0522 14.9146C55.0522 14.8735 55.0648 14.8359 55.0898 14.8018C55.1149 14.7676 55.1491 14.7471 55.1924 14.7402C55.2767 14.722 55.3576 14.7083 55.4351 14.6992C55.5125 14.6878 55.59 14.6787 55.6675 14.6719V12.0605C55.5239 12.0537 55.4032 12.0457 55.3052 12.0366C55.2095 12.0252 55.1559 12.0173 55.1445 12.0127C55.099 12.0081 55.0614 11.9888 55.0317 11.9546C55.0044 11.9204 54.9907 11.8805 54.9907 11.835C54.9907 11.7803 55.0101 11.737 55.0488 11.7051C55.0876 11.6709 55.1286 11.6538 55.1719 11.6538C55.181 11.6538 55.1878 11.6561 55.1924 11.6606C55.1947 11.6606 55.2209 11.6629 55.271 11.6675C55.3211 11.672 55.3861 11.6777 55.4658 11.6846C55.5479 11.6914 55.6401 11.6971 55.7427 11.7017C55.8452 11.7062 55.9512 11.7085 56.0605 11.7085C56.1699 11.7085 56.277 11.7062 56.3818 11.7017C56.4867 11.6948 56.5824 11.6812 56.6689 11.6606C56.6735 11.6606 56.6781 11.6595 56.6826 11.6572C56.6895 11.6549 56.6963 11.6538 56.7031 11.6538C56.7555 11.6538 56.7988 11.6732 56.833 11.7119C56.8695 11.7484 56.8877 11.7894 56.8877 11.835V12.187C57.0199 11.9933 57.1771 11.8475 57.3594 11.7495C57.5439 11.6493 57.7524 11.5991 57.9849 11.5991C58.1216 11.5991 58.2401 11.623 58.3403 11.6709C58.4429 11.7165 58.5306 11.7791 58.6035 11.8589C58.6787 11.9386 58.7391 12.0309 58.7847 12.1357C58.8325 12.2383 58.8701 12.3465 58.8975 12.4604C58.9271 12.5744 58.9465 12.6906 58.9556 12.8091C58.967 12.9253 58.9727 13.0347 58.9727 13.1372C58.9727 13.2511 58.967 13.3765 58.9556 13.5132C58.9442 13.6476 58.9294 13.7821 58.9111 13.9165C58.8952 14.0509 58.8758 14.1785 58.853 14.2993C58.8325 14.4201 58.812 14.5226 58.7915 14.6069C58.8781 14.6115 58.967 14.616 59.0581 14.6206C59.1515 14.6252 59.2461 14.6331 59.3418 14.6445C59.3942 14.6491 59.4341 14.6719 59.4614 14.7129C59.491 14.7516 59.5059 14.7938 59.5059 14.8394Z" fill="url(#paint3_linear_411_6)"/>
<defs>
<linearGradient id="paint0_linear_411_6" x1="0" y1="7.5" x2="12" y2="7.5" gradientUnits="userSpaceOnUse">
<stop stop-color="#DB7466"/>
<stop offset="1" stop-color="#8D527F"/>
</linearGradient>
<linearGradient id="paint1_linear_411_6" x1="7.68246" y1="14.4994" x2="14.6193" y2="4.33067" gradientUnits="userSpaceOnUse">
<stop stop-color="#8D527F"/>
<stop offset="1" stop-color="#247BCC"/>
</linearGradient>
<linearGradient id="paint2_linear_411_6" x1="23.6379" y1="3.4547" x2="51.4353" y2="6.56993" gradientUnits="userSpaceOnUse">
<stop stop-color="#D0565A"/>
<stop offset="1" stop-color="#E1866D"/>
</linearGradient>
<linearGradient id="paint3_linear_411_6" x1="26.235" y1="10.4547" x2="62.6305" y2="15.8445" gradientUnits="userSpaceOnUse">
<stop stop-color="#D0565A"/>
<stop offset="1" stop-color="#E1866D"/>
</linearGradient>
</defs>
</svg>
