<svg width="55" height="17" viewBox="0 0 55 17" fill="none" xmlns="http://www.w3.org/2000/svg">
<path d="M0 7.88938C0 8.9082 0.76305 9.734 1.70442 9.734C2.16992 9.734 2.59209 9.53224 2.8997 9.20488L2.8997 13L5.74039 13C5.37931 12.6617 5.15033 12.1616 5.15033 11.6042C5.15033 10.5854 5.91337 9.75957 6.85473 9.75957C7.7961 9.75957 8.55913 10.5854 8.55913 11.6042C8.55913 12.1616 8.33016 12.6617 7.96908 13H12V9.01333C11.6876 9.4349 11.208 9.70484 10.6698 9.70484C9.72844 9.70484 8.96543 8.87903 8.96543 7.8602C8.96543 6.84139 9.72848 6.01559 10.6698 6.01559C11.208 6.01559 11.6876 6.28553 12 6.7071L12 3.15102H8.43945C8.7489 2.81705 8.94015 2.35499 8.94015 1.84463C8.94015 0.825805 8.1771 2.9042e-08 7.23574 2.9042e-08C6.29434 2.9042e-08 5.53133 0.825827 5.53133 1.84463C5.53133 2.35498 5.72258 2.81705 6.03203 3.15102H2.89969L2.89969 6.57387C2.59206 6.2464 2.16998 6.04474 1.70441 6.04474C0.76304 6.04474 0 6.87057 0 7.88938Z" fill="url(#paint0_linear_411_6)"/>
<path d="M8.77932 14.2477C9.58365 14.7964 10.6925 14.6053 11.2563 13.8209C11.535 13.4331 11.6286 12.9727 11.5544 12.5401L14.5504 14.5839L16.2516 12.217C15.7683 12.3357 15.2364 12.2571 14.7963 11.9569C13.992 11.4083 13.797 10.3277 14.3607 9.54337C14.9245 8.759 16.0334 8.56797 16.8377 9.11666C17.2777 9.41684 17.5355 9.87696 17.5863 10.36L20.0002 7.00135L16.8529 4.85434C16.9986 5.34165 16.9245 5.88666 16.6022 6.33507C16.0385 7.11946 14.9296 7.31048 14.1253 6.76179C13.321 6.21311 13.126 5.13259 13.6897 4.34823C14.012 3.89984 14.5123 3.64559 15.0322 3.61232L12.2248 1.6972L10.0926 4.66393C10.0142 4.22623 9.76397 3.81803 9.36106 3.54318C8.55674 2.99449 7.44784 3.18554 6.8841 3.9699C6.32034 4.7543 6.51537 5.8348 7.31968 6.38347C7.72258 6.65832 8.2019 6.74782 8.65087 6.66984L6.77506 9.27977L9.47727 11.1231C9.03452 11.2031 8.62255 11.4462 8.34374 11.8341C7.78 12.6185 7.97501 13.699 8.77932 14.2477Z" fill="url(#paint1_linear_411_6)"/>
<path d="M26.144 3.992L25.112 7.72H24.368L23.4 4.096C23.4053 4.74667 23.416 5.40267 23.432 6.064C23.4533 6.72533 23.4693 7.37067 23.48 8H22.216C22.2267 7.45067 22.2347 6.90667 22.24 6.368C22.2453 5.824 22.248 5.27733 22.248 4.728C22.248 4.17867 22.2453 3.63467 22.24 3.096C22.2347 2.552 22.2267 2.00533 22.216 1.456H23.928L24.776 5.208L25.728 1.456H27.344C27.328 2.544 27.32 3.63467 27.32 4.728C27.32 5.82133 27.328 6.912 27.344 8H26.064L26.144 3.992ZM30.4903 3.128C31.141 3.128 31.605 3.34133 31.8823 3.768C32.165 4.19467 32.3063 4.808 32.3063 5.608C32.3063 6.41333 32.165 7.02933 31.8823 7.456C31.605 7.87733 31.141 8.088 30.4903 8.088C29.8343 8.088 29.365 7.87733 29.0823 7.456C28.805 7.02933 28.6663 6.41333 28.6663 5.608C28.6663 4.808 28.805 4.19467 29.0823 3.768C29.365 3.34133 29.8343 3.128 30.4903 3.128ZM30.4903 6.208C30.597 6.208 30.6903 6.18667 30.7703 6.144C30.8556 6.10133 30.925 6.04533 30.9783 5.976C31.0316 5.90667 31.0716 5.82933 31.0983 5.744C31.125 5.65333 31.1383 5.56 31.1383 5.464C31.1383 5.368 31.125 5.27467 31.0983 5.184C31.0716 5.09333 31.0316 5.01333 30.9783 4.944C30.925 4.87467 30.8556 4.81867 30.7703 4.776C30.6903 4.73333 30.597 4.712 30.4903 4.712C30.2716 4.712 30.1063 4.78933 29.9943 4.944C29.8876 5.09867 29.8343 5.272 29.8343 5.464C29.8343 5.56 29.8476 5.65333 29.8743 5.744C29.901 5.82933 29.941 5.90667 29.9943 5.976C30.053 6.04533 30.1223 6.10133 30.2023 6.144C30.2823 6.18667 30.3783 6.208 30.4903 6.208ZM33.5344 8C33.5078 7.89333 33.4891 7.776 33.4784 7.648C33.4731 7.52 33.4704 7.38933 33.4704 7.256C33.4704 7.09067 33.4758 6.936 33.4864 6.792C33.5024 6.648 33.5238 6.504 33.5504 6.36L35.2384 4.824H33.6944C33.6784 4.71733 33.6651 4.59733 33.6544 4.464C33.6438 4.32533 33.6384 4.17867 33.6384 4.024C33.6384 3.87467 33.6438 3.73067 33.6544 3.592C33.6651 3.45333 33.6784 3.328 33.6944 3.216H36.7184C36.7291 3.312 36.7371 3.41067 36.7424 3.512C36.7531 3.61333 36.7584 3.72533 36.7584 3.848C36.7584 3.93333 36.7558 4.03467 36.7504 4.152C36.7451 4.26933 36.7344 4.41867 36.7184 4.6L34.7984 6.296H36.7424C36.7584 6.41867 36.7718 6.55467 36.7824 6.704C36.7931 6.848 36.7984 6.99733 36.7984 7.152C36.7984 7.312 36.7931 7.46667 36.7824 7.616C36.7718 7.76 36.7584 7.888 36.7424 8H33.5344ZM41.9548 8H40.8588V7.608C40.6668 7.76267 40.4641 7.88267 40.2508 7.968C40.0375 8.048 39.8295 8.088 39.6268 8.088C39.3868 8.088 39.1655 8.02933 38.9628 7.912C38.7601 7.79467 38.5841 7.632 38.4348 7.424C38.2908 7.21067 38.1761 6.95733 38.0908 6.664C38.0055 6.37067 37.9628 6.05067 37.9628 5.704C37.9628 5.34133 38.0081 5.00267 38.0988 4.688C38.1895 4.37333 38.3121 4.10133 38.4668 3.872C38.6268 3.63733 38.8135 3.456 39.0268 3.328C39.2455 3.19467 39.4801 3.128 39.7308 3.128C39.9495 3.128 40.1575 3.176 40.3548 3.272C40.5521 3.36267 40.7201 3.47733 40.8588 3.616V3.216H41.9948L41.9548 8ZM39.4908 5.112C39.4908 5.33067 39.5495 5.50667 39.6668 5.64C39.7895 5.77333 39.9441 5.84 40.1308 5.84C40.3335 5.84 40.5041 5.768 40.6428 5.624C40.7868 5.48 40.8588 5.296 40.8588 5.072C40.8588 4.97067 40.8401 4.87467 40.8028 4.784C40.7708 4.69333 40.7228 4.616 40.6588 4.552C40.5948 4.48267 40.5201 4.42933 40.4348 4.392C40.3495 4.35467 40.2588 4.336 40.1628 4.336C39.9708 4.336 39.8108 4.408 39.6828 4.552C39.5548 4.696 39.4908 4.88267 39.4908 5.112ZM43.3877 3.344H44.5637V8H43.3877V3.344ZM44.0037 1.36C44.1317 1.36 44.2464 1.38667 44.3477 1.44C44.4544 1.488 44.5424 1.552 44.6117 1.632C44.681 1.712 44.7344 1.80267 44.7717 1.904C44.809 2 44.8277 2.09333 44.8277 2.184C44.8277 2.30667 44.8037 2.42133 44.7557 2.528C44.713 2.62933 44.6517 2.72 44.5717 2.8C44.497 2.87467 44.409 2.936 44.3077 2.984C44.2117 3.02667 44.1077 3.048 43.9957 3.048C43.857 3.048 43.7344 3.02667 43.6277 2.984C43.521 2.936 43.4304 2.87733 43.3557 2.808C43.2864 2.73333 43.233 2.648 43.1957 2.552C43.1637 2.456 43.1477 2.35733 43.1477 2.256C43.1477 2.15467 43.1664 2.05067 43.2037 1.944C43.2464 1.83733 43.3024 1.74133 43.3717 1.656C43.4464 1.56533 43.537 1.49333 43.6437 1.44C43.7504 1.38667 43.8704 1.36 44.0037 1.36ZM48.1814 3.128C48.4961 3.128 48.7814 3.17333 49.0374 3.264C49.0374 3.35467 49.0374 3.45333 49.0374 3.56C49.0428 3.66133 49.0454 3.76533 49.0454 3.872C49.0454 3.984 49.0428 4.096 49.0374 4.208C49.0374 4.32 49.0374 4.424 49.0374 4.52C48.8614 4.37067 48.6454 4.296 48.3894 4.296C48.2294 4.296 48.0961 4.32267 47.9894 4.376C47.8828 4.424 47.7948 4.488 47.7254 4.568C47.6614 4.648 47.6161 4.736 47.5894 4.832C47.5628 4.92267 47.5494 5.01067 47.5494 5.096C47.5494 5.21333 47.5708 5.32533 47.6134 5.432C47.6561 5.53333 47.7148 5.624 47.7894 5.704C47.8641 5.784 47.9494 5.848 48.0454 5.896C48.1468 5.93867 48.2534 5.96 48.3654 5.96C48.4721 5.96 48.5841 5.93867 48.7014 5.896C48.8188 5.85333 48.9308 5.79467 49.0374 5.72C49.0374 5.896 49.0374 6.08 49.0374 6.272C49.0428 6.45867 49.0454 6.648 49.0454 6.84C49.0454 7.02667 49.0428 7.21867 49.0374 7.416C49.0374 7.608 49.0374 7.8 49.0374 7.992C48.7388 8.056 48.4428 8.088 48.1494 8.088C47.7868 8.088 47.4641 8.032 47.1814 7.92C46.8988 7.80267 46.6588 7.63733 46.4614 7.424C46.2641 7.21067 46.1121 6.952 46.0054 6.648C45.9041 6.33867 45.8534 5.99467 45.8534 5.616C45.8534 5.25867 45.9014 4.928 45.9974 4.624C46.0934 4.31467 46.2374 4.05067 46.4294 3.832C46.6268 3.61333 46.8694 3.44267 47.1574 3.32C47.4508 3.192 47.7921 3.128 48.1814 3.128ZM54.2829 8H53.1869V7.608C52.9949 7.76267 52.7923 7.88267 52.5789 7.968C52.3656 8.048 52.1576 8.088 51.9549 8.088C51.7149 8.088 51.4936 8.02933 51.2909 7.912C51.0883 7.79467 50.9123 7.632 50.7629 7.424C50.6189 7.21067 50.5043 6.95733 50.4189 6.664C50.3336 6.37067 50.2909 6.05067 50.2909 5.704C50.2909 5.34133 50.3363 5.00267 50.4269 4.688C50.5176 4.37333 50.6403 4.10133 50.7949 3.872C50.9549 3.63733 51.1416 3.456 51.3549 3.328C51.5736 3.19467 51.8083 3.128 52.0589 3.128C52.2776 3.128 52.4856 3.176 52.6829 3.272C52.8803 3.36267 53.0483 3.47733 53.1869 3.616V3.216H54.3229L54.2829 8ZM51.8189 5.112C51.8189 5.33067 51.8776 5.50667 51.9949 5.64C52.1176 5.77333 52.2723 5.84 52.4589 5.84C52.6616 5.84 52.8323 5.768 52.9709 5.624C53.1149 5.48 53.1869 5.296 53.1869 5.072C53.1869 4.97067 53.1683 4.87467 53.1309 4.784C53.0989 4.69333 53.0509 4.616 52.9869 4.552C52.9229 4.48267 52.8483 4.42933 52.7629 4.392C52.6776 4.35467 52.5869 4.336 52.4909 4.336C52.2989 4.336 52.1389 4.408 52.0109 4.552C51.8829 4.696 51.8189 4.88267 51.8189 5.112Z" fill="url(#paint2_linear_411_6)"/>
<path d="M24.136 10.08C24.136 9.73867 24.2 9.45867 24.328 9.24C24.4613 9.016 24.6267 8.84 24.824 8.712C25.0267 8.57867 25.248 8.488 25.488 8.44C25.7333 8.38667 25.968 8.36 26.192 8.36C26.256 8.36 26.336 8.36267 26.432 8.368C26.5333 8.37333 26.6373 8.38133 26.744 8.392C26.856 8.40267 26.968 8.41867 27.08 8.44C27.1973 8.456 27.3067 8.48 27.408 8.512C27.4187 8.65067 27.4267 8.78133 27.432 8.904C27.4373 9.02133 27.44 9.15733 27.44 9.312C27.44 9.46667 27.4373 9.616 27.432 9.76C27.4267 9.89867 27.4187 10.032 27.408 10.16C27.3653 10.1547 27.3093 10.1467 27.24 10.136C27.176 10.1253 27.1067 10.1173 27.032 10.112C26.9627 10.1067 26.8907 10.1013 26.816 10.096C26.7467 10.0907 26.68 10.088 26.616 10.088C26.36 10.088 26.1733 10.128 26.056 10.208C25.9387 10.288 25.88 10.3973 25.88 10.536C25.88 10.616 25.8987 10.6933 25.936 10.768C25.9733 10.8373 26.0213 10.904 26.08 10.968C26.144 11.032 26.2133 11.0933 26.288 11.152C26.368 11.2107 26.448 11.2667 26.528 11.32C26.656 11.4107 26.784 11.512 26.912 11.624C27.0453 11.7307 27.1653 11.8613 27.272 12.016C27.3787 12.1653 27.4667 12.3413 27.536 12.544C27.6053 12.7413 27.64 12.9707 27.64 13.232C27.64 13.5733 27.5813 13.8613 27.464 14.096C27.3467 14.3307 27.1947 14.5227 27.008 14.672C26.8267 14.816 26.6213 14.9227 26.392 14.992C26.168 15.056 25.944 15.088 25.72 15.088C25.6187 15.088 25.4933 15.08 25.344 15.064C25.2 15.0533 25.0533 15.0347 24.904 15.008C24.7547 14.9867 24.6133 14.96 24.48 14.928C24.3467 14.8907 24.24 14.848 24.16 14.8C24.1387 14.704 24.12 14.6053 24.104 14.504C24.0933 14.4027 24.088 14.2907 24.088 14.168C24.088 14.0827 24.0907 13.9787 24.096 13.856C24.1067 13.7333 24.1173 13.608 24.128 13.48C24.1387 13.352 24.1493 13.2293 24.16 13.112C24.176 12.9947 24.1893 12.896 24.2 12.816C24.2587 12.848 24.344 12.8853 24.456 12.928C24.568 12.9653 24.688 13.0027 24.816 13.04C24.9493 13.0773 25.0827 13.1093 25.216 13.136C25.3493 13.1627 25.4667 13.176 25.568 13.176C25.7387 13.176 25.8667 13.1413 25.952 13.072C26.0373 12.9973 26.08 12.8987 26.08 12.776C26.08 12.6427 26.032 12.5253 25.936 12.424C25.84 12.3173 25.72 12.2133 25.576 12.112C25.432 12.0107 25.2747 11.904 25.104 11.792C24.9387 11.6747 24.784 11.5387 24.64 11.384C24.496 11.2293 24.376 11.048 24.28 10.84C24.184 10.6267 24.136 10.3733 24.136 10.08ZM28.2172 9.288H29.3132V10.216H29.9292V12.344H29.2972V13.464C29.2972 13.6827 29.3159 13.8293 29.3532 13.904C29.3905 13.9733 29.4759 14.008 29.6092 14.008C29.6465 14.008 29.6972 14.0053 29.7612 14C29.8252 13.9947 29.8732 13.9867 29.9052 13.976C29.9159 14.0133 29.9212 14.0907 29.9212 14.208C29.9212 14.32 29.9212 14.4347 29.9212 14.552C29.9212 14.6533 29.9212 14.7467 29.9212 14.832C29.9212 14.912 29.9185 14.968 29.9132 15C29.8492 15.0107 29.7772 15.0187 29.6972 15.024C29.6225 15.0347 29.5479 15.0427 29.4732 15.048C29.4039 15.0533 29.3372 15.056 29.2732 15.056C29.2145 15.0613 29.1665 15.064 29.1292 15.064C28.9372 15.064 28.7799 15.0267 28.6572 14.952C28.5345 14.8773 28.4385 14.7787 28.3692 14.656C28.2999 14.528 28.2519 14.3867 28.2252 14.232C28.1985 14.072 28.1852 13.9093 28.1852 13.744C28.1852 13.68 28.1852 13.5867 28.1852 13.464C28.1905 13.336 28.1932 13.2027 28.1932 13.064C28.1985 12.9253 28.2039 12.792 28.2092 12.664C28.2145 12.5307 28.2172 12.424 28.2172 12.344H27.7372V10.216H28.2172V9.288ZM31.2551 10.216L31.3111 10.824C31.3751 10.7227 31.4524 10.6293 31.5431 10.544C31.6337 10.4587 31.7271 10.3867 31.8231 10.328C31.9244 10.264 32.0231 10.216 32.1191 10.184C32.2204 10.1467 32.3137 10.128 32.3991 10.128C32.4097 10.2667 32.4177 10.4267 32.4231 10.608C32.4337 10.784 32.4391 10.9653 32.4391 11.152C32.4391 11.3653 32.4337 11.576 32.4231 11.784C32.4177 11.992 32.4097 12.184 32.3991 12.36C32.3511 12.3387 32.2844 12.3227 32.1991 12.312C32.1137 12.3013 32.0417 12.296 31.9831 12.296C31.7857 12.296 31.6391 12.344 31.5431 12.44C31.4524 12.5307 31.4071 12.6453 31.4071 12.784V15H30.2311C30.2364 14.136 30.2391 13.3173 30.2391 12.544C30.2444 11.7653 30.2471 10.9893 30.2471 10.216H31.2551ZM34.8587 15V14.576C34.7307 14.7307 34.576 14.856 34.3947 14.952C34.2134 15.0427 34.0294 15.088 33.8427 15.088C33.7254 15.088 33.6107 15.0693 33.4987 15.032C33.392 15 33.2934 14.9547 33.2027 14.896C33.112 14.8373 33.032 14.768 32.9627 14.688C32.8987 14.6027 32.8507 14.512 32.8187 14.416C32.7974 14.3413 32.7787 14.2347 32.7627 14.096C32.752 13.952 32.7467 13.8 32.7467 13.64V10.216H33.9227V12.616C33.9227 12.776 33.96 12.904 34.0347 13C34.1094 13.0907 34.2107 13.136 34.3387 13.136C34.4027 13.136 34.4667 13.1227 34.5307 13.096C34.6 13.0693 34.6587 13.0347 34.7067 12.992C34.76 12.9493 34.8027 12.8987 34.8347 12.84C34.8667 12.7813 34.8827 12.72 34.8827 12.656V10.216H36.0587C36.0534 10.392 36.048 10.5787 36.0427 10.776C36.0374 10.968 36.032 11.1627 36.0267 11.36C36.0214 11.552 36.016 11.744 36.0107 11.936C36.0107 12.128 36.0107 12.3093 36.0107 12.48C36.0107 12.5813 36.0107 12.7333 36.0107 12.936C36.0107 13.1387 36.0107 13.36 36.0107 13.6C36.016 13.84 36.0187 14.0853 36.0187 14.336C36.0187 14.5867 36.0187 14.808 36.0187 15H34.8587ZM38.6346 10.128C38.9492 10.128 39.2346 10.1733 39.4906 10.264C39.4906 10.3547 39.4906 10.4533 39.4906 10.56C39.4959 10.6613 39.4986 10.7653 39.4986 10.872C39.4986 10.984 39.4959 11.096 39.4906 11.208C39.4906 11.32 39.4906 11.424 39.4906 11.52C39.3146 11.3707 39.0986 11.296 38.8426 11.296C38.6826 11.296 38.5492 11.3227 38.4426 11.376C38.3359 11.424 38.2479 11.488 38.1786 11.568C38.1146 11.648 38.0692 11.736 38.0426 11.832C38.0159 11.9227 38.0026 12.0107 38.0026 12.096C38.0026 12.2133 38.0239 12.3253 38.0666 12.432C38.1092 12.5333 38.1679 12.624 38.2426 12.704C38.3172 12.784 38.4026 12.848 38.4986 12.896C38.5999 12.9387 38.7066 12.96 38.8186 12.96C38.9252 12.96 39.0372 12.9387 39.1546 12.896C39.2719 12.8533 39.3839 12.7947 39.4906 12.72C39.4906 12.896 39.4906 13.08 39.4906 13.272C39.4959 13.4587 39.4986 13.648 39.4986 13.84C39.4986 14.0267 39.4959 14.2187 39.4906 14.416C39.4906 14.608 39.4906 14.8 39.4906 14.992C39.1919 15.056 38.8959 15.088 38.6026 15.088C38.2399 15.088 37.9172 15.032 37.6346 14.92C37.3519 14.8027 37.1119 14.6373 36.9146 14.424C36.7172 14.2107 36.5652 13.952 36.4586 13.648C36.3572 13.3387 36.3066 12.9947 36.3066 12.616C36.3066 12.2587 36.3546 11.928 36.4506 11.624C36.5466 11.3147 36.6906 11.0507 36.8826 10.832C37.0799 10.6133 37.3226 10.4427 37.6106 10.32C37.9039 10.192 38.2452 10.128 38.6346 10.128ZM40.2641 9.288H41.3601V10.216H41.9761V12.344H41.3441V13.464C41.3441 13.6827 41.3627 13.8293 41.4001 13.904C41.4374 13.9733 41.5227 14.008 41.6561 14.008C41.6934 14.008 41.7441 14.0053 41.8081 14C41.8721 13.9947 41.9201 13.9867 41.9521 13.976C41.9627 14.0133 41.9681 14.0907 41.9681 14.208C41.9681 14.32 41.9681 14.4347 41.9681 14.552C41.9681 14.6533 41.9681 14.7467 41.9681 14.832C41.9681 14.912 41.9654 14.968 41.9601 15C41.8961 15.0107 41.8241 15.0187 41.7441 15.024C41.6694 15.0347 41.5947 15.0427 41.5201 15.048C41.4507 15.0533 41.3841 15.056 41.3201 15.056C41.2614 15.0613 41.2134 15.064 41.1761 15.064C40.9841 15.064 40.8267 15.0267 40.7041 14.952C40.5814 14.8773 40.4854 14.7787 40.4161 14.656C40.3467 14.528 40.2987 14.3867 40.2721 14.232C40.2454 14.072 40.2321 13.9093 40.2321 13.744C40.2321 13.68 40.2321 13.5867 40.2321 13.464C40.2374 13.336 40.2401 13.2027 40.2401 13.064C40.2454 12.9253 40.2507 12.792 40.2561 12.664C40.2614 12.5307 40.2641 12.424 40.2641 12.344H39.7841V10.216H40.2641V9.288ZM42.2939 10.344H43.4699V15H42.2939V10.344ZM42.9099 8.36C43.0379 8.36 43.1526 8.38667 43.2539 8.44C43.3606 8.488 43.4486 8.552 43.5179 8.632C43.5873 8.712 43.6406 8.80267 43.6779 8.904C43.7153 9 43.7339 9.09333 43.7339 9.184C43.7339 9.30667 43.7099 9.42133 43.6619 9.528C43.6193 9.62933 43.5579 9.72 43.4779 9.8C43.4033 9.87467 43.3153 9.936 43.2139 9.984C43.1179 10.0267 43.0139 10.048 42.9019 10.048C42.7633 10.048 42.6406 10.0267 42.5339 9.984C42.4273 9.936 42.3366 9.87733 42.2619 9.808C42.1926 9.73333 42.1393 9.648 42.1019 9.552C42.0699 9.456 42.0539 9.35733 42.0539 9.256C42.0539 9.15467 42.0726 9.05067 42.1099 8.944C42.1526 8.83733 42.2086 8.74133 42.2779 8.656C42.3526 8.56533 42.4433 8.49333 42.5499 8.44C42.6566 8.38667 42.7766 8.36 42.9099 8.36ZM45.5997 10.128C46.2504 10.128 46.7144 10.3413 46.9917 10.768C47.2744 11.1947 47.4157 11.808 47.4157 12.608C47.4157 13.4133 47.2744 14.0293 46.9917 14.456C46.7144 14.8773 46.2504 15.088 45.5997 15.088C44.9437 15.088 44.4744 14.8773 44.1917 14.456C43.9144 14.0293 43.7757 13.4133 43.7757 12.608C43.7757 11.808 43.9144 11.1947 44.1917 10.768C44.4744 10.3413 44.9437 10.128 45.5997 10.128ZM45.5997 13.208C45.7064 13.208 45.7997 13.1867 45.8797 13.144C45.965 13.1013 46.0344 13.0453 46.0877 12.976C46.141 12.9067 46.181 12.8293 46.2077 12.744C46.2344 12.6533 46.2477 12.56 46.2477 12.464C46.2477 12.368 46.2344 12.2747 46.2077 12.184C46.181 12.0933 46.141 12.0133 46.0877 11.944C46.0344 11.8747 45.965 11.8187 45.8797 11.776C45.7997 11.7333 45.7064 11.712 45.5997 11.712C45.381 11.712 45.2157 11.7893 45.1037 11.944C44.997 12.0987 44.9437 12.272 44.9437 12.464C44.9437 12.56 44.957 12.6533 44.9837 12.744C45.0104 12.8293 45.0504 12.9067 45.1037 12.976C45.1624 13.0453 45.2317 13.1013 45.3117 13.144C45.3917 13.1867 45.4877 13.208 45.5997 13.208ZM48.8678 10.216V10.648C48.9958 10.488 49.1505 10.3627 49.3318 10.272C49.5185 10.176 49.7078 10.128 49.8998 10.128C50.1345 10.128 50.3425 10.192 50.5238 10.32C50.7051 10.448 50.8251 10.6 50.8838 10.776C50.9105 10.856 50.9318 10.968 50.9478 11.112C50.9691 11.2507 50.9798 11.408 50.9798 11.584V15H49.8038V12.68C49.8038 12.44 49.7585 12.28 49.6678 12.2C49.5825 12.1147 49.4811 12.072 49.3638 12.072C49.2091 12.072 49.0865 12.1227 48.9958 12.224C48.9105 12.32 48.8678 12.4453 48.8678 12.6V15H47.7078C47.7078 14.824 47.7078 14.64 47.7078 14.448C47.7131 14.2507 47.7158 14.056 47.7158 13.864C47.7158 13.6667 47.7158 13.472 47.7158 13.28C47.7158 13.088 47.7158 12.9067 47.7158 12.736C47.7158 12.6347 47.7158 12.4827 47.7158 12.28C47.7158 12.0773 47.7131 11.856 47.7078 11.616C47.7078 11.376 47.7078 11.1307 47.7078 10.88C47.7078 10.6293 47.7078 10.408 47.7078 10.216H48.8678Z" fill="url(#paint3_linear_411_6)"/>
<defs>
<linearGradient id="paint0_linear_411_6" x1="0" y1="6.5" x2="12" y2="6.5" gradientUnits="userSpaceOnUse">
<stop stop-color="#DB7466"/>
<stop offset="1" stop-color="#8D527F"/>
</linearGradient>
<linearGradient id="paint1_linear_411_6" x1="7.68246" y1="13.4994" x2="14.6193" y2="3.33067" gradientUnits="userSpaceOnUse">
<stop stop-color="#8D527F"/>
<stop offset="1" stop-color="#247BCC"/>
</linearGradient>
<linearGradient id="paint2_linear_411_6" x1="24.3571" y1="2.46154" x2="57.513" y2="6.91763" gradientUnits="userSpaceOnUse">
<stop stop-color="#D0565A"/>
<stop offset="1" stop-color="#E1866D"/>
</linearGradient>
<linearGradient id="paint3_linear_411_6" x1="26" y1="9.46154" x2="54.2727" y2="12.6856" gradientUnits="userSpaceOnUse">
<stop stop-color="#D0565A"/>
<stop offset="1" stop-color="#E1866D"/>
</linearGradient>
</defs>
</svg>
